<svg id="Capa_1" enable-background="new 0 0 511.816 511.816" height="512" viewBox="0 0 511.816 511.816" width="512" xmlns="http://www.w3.org/2000/svg"><g><path d="m255.602 100.299c4.143 0 7.5-3.358 7.5-7.5v-.894c6.647-2.595 11.683-8.508 12.927-15.906 1.586-9.43-3.514-17.944-12.689-21.188-3.959-1.399-8.811-3.249-11.309-5.171-.11-.238-.255-1.052.118-2.053.238-.637.724-1.456 1.688-1.747 3.88-1.167 6.343.711 6.619.937 3.186 2.648 7.911 2.214 10.561-.971 2.649-3.184 2.215-7.913-.969-10.562-1.779-1.479-4.155-2.831-6.946-3.719v-.01c0-4.142-3.357-7.5-7.5-7.5s-7.5 3.358-7.5 7.5v.462c-5.593 2.23-9.702 7.265-10.871 13.47-1.18 6.259.916 12.366 5.47 15.938 4.158 3.261 9.975 5.564 15.641 7.567.854.302 3.456 1.222 2.896 4.558-.3 1.78-1.833 4.799-5.682 4.824-4.381.028-5.306-.116-8.442-2.167-3.468-2.268-8.115-1.295-10.382 2.171-2.268 3.466-1.296 8.115 2.171 10.382 3.458 2.262 6.239 3.451 9.2 4.053v.024c-.001 4.144 3.356 7.502 7.499 7.502z"/><path d="m460.124 271.018c-10.867-15.72-25.966-27.746-43.662-34.776-5.99-2.38-9.861-7.954-9.861-14.201v-15.25c11.718-1.531 20.798-11.572 20.798-23.701 0-6.383-2.489-12.386-7.007-16.902-3.774-3.775-8.587-6.127-13.791-6.801v-23.597c0-18.1-14.725-32.825-32.824-32.825h-70.968c9.684-11.124 15.25-25.52 15.25-40.805 0-8.046-1.513-15.874-4.495-23.266-1.549-3.841-5.916-5.701-9.762-4.149-3.841 1.55-5.698 5.92-4.148 9.761 2.26 5.601 3.405 11.541 3.405 17.654 0 16.912-8.992 32.375-23.556 40.805h-47.189c-14.564-8.43-23.556-23.893-23.556-40.805 0-26.004 21.151-47.16 47.15-47.16 9.116 0 17.957 2.603 25.564 7.526 3.479 2.25 8.122 1.257 10.372-2.222 2.25-3.477 1.256-8.121-2.222-10.371-10.041-6.498-21.699-9.933-33.714-9.933-34.27 0-62.15 27.885-62.15 62.16 0 15.285 5.566 29.682 15.25 40.805h-70.958c-18.1 0-32.824 14.725-32.824 32.825v23.598c-11.723 1.526-20.808 11.57-20.808 23.702 0 6.383 2.489 12.387 7.007 16.903 3.777 3.778 8.594 6.13 13.801 6.802v15.246c0 6.247-3.87 11.821-9.86 14.201-17.699 7.031-32.8 19.056-43.669 34.776-11.132 16.099-17.016 34.991-17.016 54.632v89.992c0 53.031 43.144 96.175 96.175 96.175h250.115c53.025 0 96.164-43.139 96.164-96.164v-90.003c0-19.643-5.883-38.534-17.011-54.632zm-322.074-153.053h235.727c9.828 0 17.824 7.996 17.824 17.825v23.39h-271.375v-23.39c0-9.829 7.996-17.825 17.824-17.825zm15.88 302.273c.443-.202.865-.271 1.233-.271.45 0 .822.103 1.062.192.435.163 1.23.583 1.678 1.567l7.511 16.51c.685 1.506.018 3.289-1.488 3.974l-80.386 36.569c-.982.448-1.858.242-2.295.079-.435-.163-1.23-.583-1.678-1.567l-7.511-16.51c-.686-1.506-.018-3.288 1.488-3.973zm50.435-13.189c.544-.934 1.378-1.272 1.827-1.391.189-.05.457-.1.774-.1.435 0 .961.094 1.501.408l15.673 9.13c1.429.833 1.914 2.673 1.082 4.102l-44.455 76.308c-.461.792-1.117 1.144-1.584 1.308h-2.026c-.162-.059-.325-.128-.492-.226l-15.673-9.13c-.935-.544-1.272-1.378-1.391-1.827s-.235-1.341.309-2.275zm60.624 8.491v-18.14c0-1.654 1.346-3 3-3h61.57 17.673c-10.578 5.461-19.391 13.866-25.356 24.13h-53.888c-1.654 0-2.999-1.342-2.999-2.99zm-45.904 43.994c2.13 7.566 9.076 13.136 17.314 13.136h13.861c-.165.978-.271 1.976-.271 3v18.14c0 1.026.106 2.026.272 3.006h-52.895zm116.134 37.276h-67.23c-1.654 0-3-1.346-3-3v-18.14c0-1.654 1.346-3 3-3h49.935c3.757 9.391 9.738 17.653 17.295 24.14zm40.425.001c-26.002 0-47.156-21.154-47.156-47.156s21.154-47.156 47.156-47.156 47.156 21.154 47.156 47.156-21.154 47.156-47.156 47.156zm-60.023-63.281c-1.384 5.146-2.134 10.548-2.134 16.125 0 2.718.194 5.389.534 8.016h-77.623c-1.654 0-3-1.346-3-3v-18.14c0-1.654 1.346-3 3-3h79.223zm-218.903 55.732 57.681-26.24-7.448 12.785c-2.42 4.155-3.078 9.003-1.852 13.651.732 2.776 2.095 5.273 3.95 7.357h-18.193c-12.191.001-23.753-2.717-34.138-7.553zm365.417-73.61c0 26.594-12.857 50.24-32.681 65.053 5.297-9.144 8.346-19.745 8.346-31.05 0-34.273-27.883-62.156-62.156-62.156-1.415 0-2.814.064-4.205.158-3.216-5.022-8.812-8.256-15.141-8.256h-9.01c.165-.978.271-1.976.271-3v-18.14c0-9.925-8.075-18-18-18h-35.19c-4.143 0-7.5 3.358-7.5 7.5s3.357 7.5 7.5 7.5h35.19c1.654 0 3 1.346 3 3v18.14c0 1.654-1.346 3-3 3h-88.311c-1.654 0-3-1.346-3-3v-18.14c0-1.654 1.346-3 3-3h18.12c4.143 0 7.5-3.358 7.5-7.5s-3.357-7.5-7.5-7.5h-18.12c-9.925 0-18 8.075-18 18v18.14c0 9.925 8.075 18 18 18h9.011c-.165.978-.271 1.976-.271 3v18.14c0 1.021.105 2.015.27 2.99h-9.661c.292-6.48-2.923-12.907-8.905-16.393l-15.673-9.13c-4.154-2.42-9.005-3.078-13.651-1.852-4.649 1.226-8.543 4.189-10.963 8.344l-15.236 26.154-4.612-10.138c-1.991-4.376-5.567-7.715-10.069-9.402-4.504-1.688-9.393-1.52-13.769.472l-80.386 36.569c-4.139 1.883-7.206 5.155-8.938 9.009-5.561-10.987-8.715-23.39-8.715-36.522v-89.992c0-33.484 20.105-63.106 51.222-75.467 11.738-4.663 19.323-15.709 19.323-28.141v-15.042h21.702c4.143 0 7.5-3.358 7.5-7.5s-3.357-7.5-7.5-7.5h-33.6c-2.375 0-4.611-.928-6.297-2.614-1.686-1.685-2.613-3.92-2.613-6.296 0-4.913 3.997-8.91 8.91-8.91h295.16c2.375 0 4.611.928 6.297 2.614 1.686 1.685 2.613 3.92 2.613 6.295 0 4.913-3.997 8.91-8.91 8.91h-226.559c-4.143 0-7.5 3.358-7.5 7.5s3.357 7.5 7.5 7.5h214.673v15.041c0 12.432 7.585 23.478 19.322 28.141 31.11 12.359 51.212 41.982 51.212 75.467z"/><path d="m383.075 442.308c-3.959-1.399-8.811-3.249-11.31-5.17-.11-.239-.255-1.053.119-2.053.237-.637.724-1.456 1.688-1.747 3.878-1.168 6.342.711 6.619.937 3.185 2.648 7.911 2.214 10.561-.971 2.649-3.184 2.215-7.913-.969-10.562-1.778-1.479-4.155-2.831-6.946-3.719v-.009c0-4.142-3.357-7.5-7.5-7.5s-7.5 3.358-7.5 7.5v.462c-5.594 2.23-9.703 7.266-10.872 13.471-1.18 6.258.916 12.365 5.471 15.938 4.159 3.261 9.975 5.564 15.641 7.566.854.302 3.456 1.222 2.895 4.558-.299 1.78-1.832 4.799-5.681 4.825-4.374.033-5.306-.115-8.443-2.167-3.466-2.268-8.115-1.296-10.382 2.171-2.268 3.466-1.296 8.115 2.171 10.382 3.458 2.262 6.24 3.451 9.201 4.053v.024c0 4.142 3.357 7.5 7.5 7.5s7.5-3.358 7.5-7.5v-.894c6.647-2.595 11.683-8.508 12.927-15.907 1.585-9.43-3.514-17.945-12.69-21.188z"/></g></svg>