<?xml version="1.0" encoding="UTF-8"?>
<svg xmlns="http://www.w3.org/2000/svg" viewBox="0 0 512 512" width="512" height="512"><g id="_25.Available_Worldwide" data-name="25.Available Worldwide"><path d="M256,507A251,251,0,0,1,66.09,91.87a6,6,0,1,1,9.08,7.86A238.85,238.85,0,0,0,17,256c0,131.79,107.21,239,239,239S495,387.79,495,256,387.79,17,256,17A238.14,238.14,0,0,0,128.12,54.07a6,6,0,1,1-6.44-10.14A251,251,0,1,1,256,507Z"/><path d="M88.83,82.9a6,6,0,0,1-4.1-10.38c3.35-3.14,6.86-6.24,10.45-9.23a6,6,0,1,1,7.68,9.22c-3.41,2.84-6.75,5.79-9.93,8.77A6,6,0,0,1,88.83,82.9Z"/><path d="M256,400c-79.4,0-144-64.6-144-144s64.6-144,144-144,144,64.6,144,144S335.4,400,256,400Zm0-276A132,132,0,1,0,388,256,132.14,132.14,0,0,0,256,124Z"/><path d="M234.23,334.33A24.88,24.88,0,0,1,216.58,327l-70.35-70.27a16.73,16.73,0,0,1,0-23.66L162,217.35a16.75,16.75,0,0,1,23.63,0l39.87,39.83a13,13,0,0,0,18.35,0l82.52-82.44a16.74,16.74,0,0,1,23.63,0l15.77,15.76a16.72,16.72,0,0,1,0,23.65l-113.95,113A24.88,24.88,0,0,1,234.23,334.33ZM173.82,224.47a4.74,4.74,0,0,0-3.34,1.37L154.71,241.6a4.73,4.73,0,0,0,0,6.68l70.35,70.28a13,13,0,0,0,18.31,0L357.31,205.65a4.73,4.73,0,0,0,0-6.66h0l-15.77-15.76a4.72,4.72,0,0,0-6.67,0l-82.52,82.44a25,25,0,0,1-35.31,0l-39.87-39.83A4.73,4.73,0,0,0,173.82,224.47Z"/><path d="M501,262H394a6,6,0,0,1,0-12H501a6,6,0,0,1,0,12Z"/><path d="M118,262H11a6,6,0,0,1,0-12H118a6,6,0,0,1,0,12Z"/><path d="M469,384H320.56a6,6,0,1,1,0-12H469a6,6,0,0,1,0,12Z"/><path d="M191.45,384H43a6,6,0,0,1,0-12H191.45a6,6,0,1,1,0,12Z"/><path d="M469,140H320.56a6,6,0,0,1,0-12H469a6,6,0,0,1,0,12Z"/><path d="M191.45,140H43a6,6,0,0,1,0-12H191.45a6,6,0,0,1,0,12Z"/><path d="M256,507c-27.73,0-53.91-17.19-75.71-49.72-20.69-30.87-35.9-73.12-44-122.18a6,6,0,0,1,11.84-2c7.69,46.7,22.65,88.41,42.11,117.45S232.46,495,256,495s46.27-15.35,65.74-44.4,34.42-70.75,42.11-117.45a6,6,0,0,1,11.84,2c-8.08,49.06-23.29,91.31-44,122.18C309.91,489.81,283.73,507,256,507Z"/><path d="M369.76,183.87a6,6,0,0,1-5.91-5c-7.69-46.7-22.65-88.41-42.11-117.45S279.54,17,256,17s-46.27,15.35-65.74,44.4-34.42,70.75-42.11,117.45a6,6,0,0,1-11.84-1.95c8.08-49.06,23.29-91.31,44-122.18C202.09,22.19,228.27,5,256,5s53.91,17.19,75.71,49.72c20.69,30.87,35.9,73.12,44,122.18a6,6,0,0,1-4.94,6.89A6.61,6.61,0,0,1,369.76,183.87Z"/></g></svg>
