<?xml version="1.0" encoding="iso-8859-1"?>
<!-- Generator: Adobe Illustrator 19.0.0, SVG Export Plug-In . SVG Version: 6.00 Build 0)  -->
<svg version="1.1" id="Capa_1" xmlns="http://www.w3.org/2000/svg" xmlns:xlink="http://www.w3.org/1999/xlink" x="0px" y="0px"
	 viewBox="0 0 512 512" style="enable-background:new 0 0 512 512;" xml:space="preserve">
<g>
	<g>
		<path d="M344.272,278.746c-12.625,0-22.896,10.271-22.896,22.896s10.271,22.896,22.896,22.896s22.896-10.271,22.896-22.896
			S356.897,278.746,344.272,278.746z M344.272,309.538c-4.354,0-7.896-3.542-7.896-7.896s3.542-7.896,7.896-7.896
			s7.896,3.542,7.896,7.896S348.626,309.538,344.272,309.538z"/>
	</g>
</g>
<g>
	<g>
		<path d="M427.52,278.746c-12.625,0-22.896,10.271-22.896,22.896s10.271,22.896,22.896,22.896s22.896-10.271,22.896-22.896
			S440.145,278.746,427.52,278.746z M427.52,309.538c-4.354,0-7.896-3.542-7.896-7.896s3.542-7.896,7.896-7.896
			s7.896,3.542,7.896,7.896S431.874,309.538,427.52,309.538z"/>
	</g>
</g>
<g>
	<g>
		<path d="M472.513,464.819c-8.526-8.182-15.414-18.644-20.52-31.154C490.199,401.668,512,355.123,512,305.1
			c0-43.866-16.822-85.352-47.369-116.814c-2.885-2.972-7.634-3.043-10.605-0.157c-2.971,2.886-3.042,7.634-0.156,10.605
			C481.683,227.382,497,265.157,497,305.1c0,47.239-21.351,91.071-58.578,120.258c-2.538,1.99-3.52,5.381-2.437,8.42
			c6.029,16.919,14.825,31.004,26.141,41.862c2.579,2.477,3.838,4.208,4.446,5.253c-3.449,1.078-12.772,1.614-28.664-1.979
			c-18.727-4.235-39.562-12.472-58.667-23.195c-1.558-0.873-3.374-1.165-5.124-0.817c-9.807,1.936-19.849,2.918-29.848,2.918
			c-68.511,0-127.671-44.727-146.596-109.733c78.247-14.16,137.782-82.78,137.782-165.047c0-10.236-0.939-20.341-2.737-30.22
			c3.853-0.288,7.715-0.451,11.552-0.451c32.758,0,63.98,10.213,90.291,29.535c1.338,0.982,2.893,1.456,4.434,1.456
			c2.306,0,4.581-1.06,6.051-3.061c2.452-3.339,1.733-8.033-1.605-10.484c-28.903-21.226-63.196-32.445-99.17-32.445
			c-4.96,0-9.958,0.236-14.933,0.675c-9.094-32.768-28.047-62.274-54.974-84.477c-3.194-2.635-7.922-2.181-10.559,1.016
			c-2.635,3.196-2.18,7.923,1.016,10.558c35.357,29.152,55.636,72.125,55.636,117.899c0,84.214-68.514,152.728-152.728,152.728
			c-10.01,0-20.05-0.983-29.84-2.922c-1.751-0.348-3.571-0.058-5.128,0.816c-19.106,10.724-39.943,18.962-58.67,23.196
			c-15.892,3.593-25.216,3.057-28.664,1.978c0.608-1.045,1.868-2.776,4.448-5.253c11.307-10.855,20.102-24.938,26.14-41.857
			c1.085-3.04,0.104-6.432-2.436-8.423c-12.347-9.679-23.097-21.144-31.952-34.076c-2.342-3.417-7.01-4.291-10.426-1.95
			c-3.418,2.34-4.291,7.008-1.951,10.426c8.675,12.666,19.005,24.051,30.757,33.904c-5.111,12.513-12,22.977-20.521,31.156
			c-12.281,11.79-10.658,19.929-7.134,24.68c3.703,4.993,11.232,7.189,21.078,7.188c22.155-0.002,56.021-11.131,84.266-26.555
			c9.882,1.787,19.972,2.692,30.032,2.692c5.03,0,10.005-0.236,14.924-0.672c9.365,33.616,29.341,63.93,56.757,85.914
			c29.601,23.737,66.841,36.809,104.861,36.809c10.05,0,20.14-0.904,30.034-2.688c28.251,15.428,62.11,26.556,84.267,26.555
			c9.84,0,17.373-2.197,21.075-7.187C483.17,484.75,484.793,476.612,472.513,464.819z"/>
	</g>
</g>
<g>
	<g>
		<path d="M250.189,36.95c-25.027-14.155-53.542-21.637-82.461-21.637C75.242,15.313,0,90.556,0,183.041
			c0,24.852,5.31,48.779,15.781,71.116c1.276,2.721,3.977,4.318,6.796,4.318c1.066,0,2.149-0.229,3.179-0.711
			c3.75-1.758,5.365-6.223,3.607-9.974C19.832,227.46,15,205.676,15,183.041C15,98.827,83.514,30.313,167.728,30.313
			c26.336,0,52.297,6.81,75.076,19.694c3.606,2.04,8.181,0.77,10.221-2.836C255.064,43.566,253.795,38.99,250.189,36.95z"/>
	</g>
</g>
<g>
	<g>
		<path d="M84.48,158.101c-12.625,0-22.896,10.271-22.896,22.896s10.271,22.896,22.896,22.896s22.896-10.271,22.896-22.896
			S97.105,158.101,84.48,158.101z M84.48,188.893c-4.354,0-7.896-3.542-7.896-7.896c0-4.354,3.542-7.896,7.896-7.896
			s7.896,3.542,7.896,7.896S88.834,188.893,84.48,188.893z"/>
	</g>
</g>
<g>
	<g>
		<path d="M167.728,158.101c-12.625,0-22.896,10.271-22.896,22.896s10.271,22.896,22.896,22.896s22.896-10.271,22.896-22.896
			S180.353,158.101,167.728,158.101z M167.728,188.893c-4.354,0-7.896-3.542-7.896-7.896c0-4.354,3.542-7.896,7.896-7.896
			s7.896,3.542,7.896,7.896S172.082,188.893,167.728,188.893z"/>
	</g>
</g>
<g>
	<g>
		<path d="M250.975,158.101c-12.625,0-22.896,10.271-22.896,22.896s10.271,22.896,22.896,22.896s22.896-10.271,22.896-22.896
			S263.6,158.101,250.975,158.101z M250.975,188.893c-4.354,0-7.896-3.542-7.896-7.896c0-4.354,3.542-7.896,7.896-7.896
			c4.354,0,7.896,3.542,7.896,7.896S255.329,188.893,250.975,188.893z"/>
	</g>
</g>
<g>
</g>
<g>
</g>
<g>
</g>
<g>
</g>
<g>
</g>
<g>
</g>
<g>
</g>
<g>
</g>
<g>
</g>
<g>
</g>
<g>
</g>
<g>
</g>
<g>
</g>
<g>
</g>
<g>
</g>
</svg>
