<svg id="Layer_5" enable-background="new 0 0 64 64" height="512" viewBox="0 0 64 64" width="512" xmlns="http://www.w3.org/2000/svg"><g><path d="m58 31h-4v-7c0-1.302-.839-2.402-2-2.816v-4.184c0-4.411-3.589-8-8-8h-1.687c-6.383 0-12.385-2.486-16.899-7-1.289-1.29-3.539-1.29-4.828 0-4.514 4.514-10.516 7-16.899 7h-2.687v7.583c0 14.988 7.312 29.092 19.632 37.777.719.419 1.537.64 2.368.64.696 0 1.382-.166 2.052-.489.26 2.514 2.366 4.489 4.948 4.489h6v2h-4v2h4 16 4v-2h-4v-2h6c2.757 0 5-2.243 5-5v-18c0-2.757-2.243-5-5-5zm-6-7v10c0 1.654-1.346 3-3 3h-10c-1.654 0-3-1.346-3-3v-10c0-.551.449-1 1-1h14c.551 0 1 .449 1 1zm4 15c.551 0 1 .449 1 1v4c0 .551-.449 1-1 1h-24c-.551 0-1-.449-1-1v-4c0-.551.449-1 1-1h7 10zm-14-18v-4c0-1.103.897-2 2-2s2 .897 2 2v4zm2-10c3.309 0 6 2.691 6 6v4h-2v-4c0-2.206-1.794-4-4-4s-4 1.794-4 4v4h-2v-4c0-3.309 2.691-6 6-6zm-19 41.165c-.228.168-.449.329-.64.467-.824.481-1.968.435-2.647.046-11.718-8.263-18.713-21.757-18.713-36.095v-5.583h.687c6.917 0 13.421-2.694 18.313-7.586.526-.526 1.474-.526 2 0 4.096 4.097 9.325 6.644 14.978 7.367-.624.505-1.172 1.099-1.621 1.767-5.093-.909-9.816-3.204-13.688-6.691l-.669-.603-.669.603c-4.588 4.132-10.263 6.572-16.409 7.056l-.922.072v3.599c0 13.468 6.509 26.23 17.413 34.138l.587.425.587-.426c.478-.347.948-.708 1.413-1.076zm0-16.165v11.04c-.65.558-1.312 1.11-2 1.628-10.033-7.56-16-19.499-16-32.085v-1.763c5.941-.649 11.439-3.017 16-6.892 3.873 3.287 8.484 5.498 13.439 6.481-.28.814-.439 1.683-.439 2.591v4.184c-1.161.414-2 1.514-2 2.816v7h-4c-2.757 0-5 2.243-5 5zm25 25h-12v-2h12zm11-7c0 1.654-1.346 3-3 3h-28c-1.654 0-3-1.346-3-3v-3h34zm0-5h-34v-13c0-1.654 1.346-3 3-3h4v1c0 1.13.391 2.162 1.026 3h-3.026c-1.654 0-3 1.346-3 3v4c0 1.654 1.346 3 3 3h24c1.654 0 3-1.346 3-3v-4c0-1.654-1.346-3-3-3h-3.026c.635-.838 1.026-1.87 1.026-3v-1h4c1.654 0 3 1.346 3 3z"/><circle cx="58" cy="54" r="1"/><circle cx="54" cy="54" r="1"/><path d="m53 41h2v2h-2z"/><path d="m49 41h2v2h-2z"/><path d="m45 41h2v2h-2z"/><path d="m41 41h2v2h-2z"/><path d="m33 41h2v2h-2z"/><path d="m37 41h2v2h-2z"/><path d="m41 35h6v-3.371c.64-.728 1-1.663 1-2.629 0-2.206-1.794-4-4-4s-4 1.794-4 4c0 .966.36 1.902 1 2.629zm3-8c1.103 0 2 .897 2 2 0 .564-.238 1.089-.669 1.478l-.331.298v2.224h-2v-2.224l-.331-.298c-.431-.389-.669-.914-.669-1.478 0-1.103.897-2 2-2z"/><path d="m11.026 17.962-1.999.076c.176 4.604 1.174 9.095 2.967 13.35l1.843-.776c-1.698-4.032-2.644-8.289-2.811-12.65z"/><path d="m12.932 33.442c.341.692.708 1.383 1.09 2.054l1.737-.991c-.362-.635-.71-1.29-1.033-1.946z"/></g></svg>