<?xml version="1.0" encoding="iso-8859-1"?>
<!-- Generator: Adobe Illustrator 22.1.0, SVG Export Plug-In . SVG Version: 6.00 Build 0)  -->
<svg xmlns="http://www.w3.org/2000/svg" xmlns:xlink="http://www.w3.org/1999/xlink" version="1.1" id="Layer_3" x="0px" y="0px" viewBox="0 0 64 64" style="enable-background:new 0 0 64 64;" xml:space="preserve" width="512" height="512">
<g>
	<path d="M29,26h1.637c1.721,5.335,6.692,9,12.363,9c5.673,0,10.643-3.665,12.363-9H57c0.552,0,1-0.447,1-1v-6c0-0.553-0.448-1-1-1   h-1.637C53.642,12.665,48.671,9,43,9s-10.642,3.665-12.363,9H29c-0.552,0-1,0.447-1,1v6C28,25.553,28.448,26,29,26z M43,33   c-4.578,0-8.615-2.823-10.242-7h2.205c1.516,3.051,4.586,5,8.037,5c3.451,0,6.522-1.949,8.036-5h2.205   C51.615,30.177,47.578,33,43,33z M37.274,26h11.453c-1.289,1.852-3.395,3-5.726,3C40.669,29,38.564,27.852,37.274,26z M43,11   c4.578,0,8.615,2.823,10.242,7h-2.204c-1.516-3.047-4.601-5-8.037-5c-3.451,0-6.521,1.949-8.037,5h-2.205   C34.385,13.823,38.422,11,43,11z M48.725,18H37.274c1.29-1.852,3.395-3,5.726-3C45.321,15,47.433,16.149,48.725,18z M30,20h26v4H30   V20z"/>
	<path d="M62,1H23v0.008c-0.26,0-0.516,0.093-0.707,0.285l-8,8C14.102,9.484,14.01,9.74,14.009,10H14v9.337   C11.112,20.323,9,23.383,9,27c0,2.088,0.725,4.102,2,5.592v14.467c-4.343,0.483-7.754,4.069-7.977,8.485   C1.821,56.234,1,57.516,1,59c0,2.206,1.794,4,4,4h22h35c0.552,0,1-0.447,1-1V2C63,1.447,62.552,1,62,1z M22,4.414V9h-4.586   L22,4.414z M16,21c2.757,0,5,2.691,5,6c0,1.725-0.628,3.37-1.723,4.516C19.099,31.702,19,31.949,19,32.207V39h-6v-6.793   c0-0.258-0.099-0.505-0.277-0.691C11.628,30.371,11,28.725,11,27C11,23.691,13.243,21,16,21z M13,41h6v2h-6V41z M13,45h6v2h-6V45z    M12,49h8c3.521,0,6.442,2.612,6.929,6H5.071C5.558,51.612,8.479,49,12,49z M5,61c-1.103,0-2-0.897-2-2s0.897-2,2-2h22   c1.103,0,2,0.897,2,2s-0.897,2-2,2H5z M61,61H30.444C30.788,60.409,31,59.732,31,59c0-1.484-0.821-2.766-2.023-3.456   c-0.223-4.416-3.633-8.002-7.977-8.485V32.592c1.275-1.49,2-3.504,2-5.592c0-4.411-3.14-8-7-8v-8h7c0.552,0,1-0.447,1-1V3h37V61z"/>
	<rect x="38" y="41" width="14" height="2"/>
	<rect x="38" y="45" width="14" height="2"/>
	<rect x="51" y="5" width="8" height="2"/>
	<rect x="54" y="9" width="5" height="2"/>
	<path d="M54.341,56.446l-1.447-2.894c-0.135-0.271-0.385-0.465-0.68-0.529s-0.604,0.008-0.839,0.195l-4.034,3.228l-1.447-2.894   c-0.135-0.271-0.385-0.465-0.68-0.529c-0.294-0.064-0.604,0.008-0.839,0.195l-5,4l1.249,1.562l4.034-3.228l1.447,2.894   c0.135,0.271,0.385,0.465,0.68,0.529c0.294,0.064,0.604-0.008,0.839-0.195l4.034-3.228l1.447,2.894   c0.135,0.271,0.385,0.465,0.68,0.529C53.856,58.992,53.929,59,54,59c0.225,0,0.446-0.076,0.625-0.219l5-4l-1.249-1.562   L54.341,56.446z"/>
</g>
</svg>
