<svg id="_x33_0" enable-background="new 0 0 64 64" height="512" viewBox="0 0 64 64" width="512" xmlns="http://www.w3.org/2000/svg"><g><path d="m17 26.816v2.184h2v-2h2v-3c0-1.654-1.346-3-3-3-.551 0-1-.449-1-1v-1h1c.551 0 1 .449 1 1v1h2v-1c0-1.302-.839-2.402-2-2.816v-2.184h-2v2h-2v3c0 1.654 1.346 3 3 3 .551 0 1 .449 1 1v1h-1c-.551 0-1-.449-1-1v-1h-2v1c0 1.302.839 2.402 2 2.816z"/><path d="m61 33v-6l-2.712-9.414c-.355-.949-1.275-1.586-2.288-1.586s-1.933.637-2.311 1.656l-2.689 9.201v31.143c0 2.757 2.243 5 5 5s5-2.243 5-5v-3c1.103 0 2-.897 2-2v-18c0-1.103-.897-2-2-2zm-4 2v14h-4v-21h6v5c-1.103 0-2 .897-2 2zm-.609-16.783.521 1.783h-1.827l.5-1.713c.129-.344.724-.274.806-.07zm-1.89 3.783h2.995l1.169 4h-5.332zm4.499 36c0 1.654-1.346 3-3 3s-3-1.346-3-3v-7h4v2c0 1.103.897 2 2 2zm0-5v-18h2l.001 18z"/><path d="m47.021 41.545c-.692-.405-1.166-.903-1.408-1.479-.16-.382-.373-.727-.612-1.049v-28.017h8v-5c0-2.757-2.243-5-5-5h-34.001c-2.757 0-5 2.243-5 5v43h-8v5c0 2.757 2.243 5 5 5h30v4l5-3.75 5 3.75v-13.686c.258-.318.592-.609 1.021-.859 1.221-.715 1.979-2.038 1.979-3.455s-.758-2.74-1.979-3.455zm.979-38.545c1.654 0 3 1.346 3 3v3h-32v-3c0-1.125-.374-2.164-1.002-3zm-45 51v-3h6v3c0 1.654-1.346 3-3 3s-3-1.346-3-3zm6.974 3c.635-.838 1.026-1.87 1.026-3v-48c0-1.654 1.346-3 3-3s3 1.346 3 3v5h26v26.425c-.619-.27-1.295-.425-2-.425-2.021 0-3.831 1.204-4.612 3.065-.243.577-.716 1.075-1.409 1.48-1.221.715-1.979 2.038-1.979 3.455s.758 2.74 1.979 3.455c.428.25.763.541 1.021.859v7.686zm31.026-.25-3 2.25v-7.012c.848.637 1.888 1.012 3 1.012s2.152-.374 3-1.012v7.012zm5.011-10.022c-1.075.628-1.829 1.447-2.243 2.433-.469 1.117-1.556 1.839-2.768 1.839s-2.299-.722-2.768-1.84c-.414-.985-1.168-1.804-2.243-2.432-.61-.357-.989-1.019-.989-1.728s.379-1.371.989-1.728c1.075-.628 1.829-1.447 2.243-2.433.469-1.117 1.556-1.839 2.768-1.839s2.299.722 2.768 1.84c.414.985 1.168 1.804 2.243 2.432.61.357.989 1.019.989 1.728s-.379 1.371-.989 1.728z"/><path d="m41 41c-2.206 0-4 1.794-4 4s1.794 4 4 4 4-1.794 4-4-1.794-4-4-4zm0 6c-1.103 0-2-.897-2-2s.897-2 2-2 2 .897 2 2-.897 2-2 2z"/><path d="m39 31h-24v6h24zm-2 4h-20v-2h20z"/><path d="m23 15h4v2h-4z"/><path d="m29 15h10v2h-10z"/><path d="m35 27h4v2h-4z"/><path d="m23 27h10v2h-10z"/><path d="m23 19h16v2h-16z"/><path d="m23 23h16v2h-16z"/><path d="m15 49h10v-10h-10zm2-8h6v6h-6z"/><path d="m27 39h4v2h-4z"/><path d="m27 43h4v2h-4z"/><path d="m27 47h4v2h-4z"/><path d="m15 51h2v2h-2z"/><path d="m19 51h2v2h-2z"/><path d="m23 51h2v2h-2z"/></g></svg>