<svg id="Capa_1" enable-background="new 0 0 512 512" height="512" viewBox="0 0 512 512" width="512" xmlns="http://www.w3.org/2000/svg"><g><path d="m114.103 220.026c4.142 0 7.5-3.357 7.5-7.5v-114.026c0-4.143-3.358-7.5-7.5-7.5h-41.129c-4.142 0-7.5 3.357-7.5 7.5v114.026c0 4.143 3.358 7.5 7.5 7.5zm-33.629-114.026h26.129v99.026h-26.129z"/><path d="m182.146 220.026c4.142 0 7.5-3.357 7.5-7.5v-85.026c0-4.143-3.358-7.5-7.5-7.5h-41.129c-4.142 0-7.5 3.357-7.5 7.5v85.026c0 4.143 3.358 7.5 7.5 7.5zm-33.629-85.026h26.129v70.026h-26.129z"/><path d="m250.189 220.026c4.142 0 7.5-3.357 7.5-7.5v-142.859c0-4.143-3.358-7.5-7.5-7.5h-41.129c-4.142 0-7.5 3.357-7.5 7.5v142.859c0 4.143 3.358 7.5 7.5 7.5zm-33.629-142.859h26.129v127.859h-26.129z"/><path d="m318.233 220.026c4.143 0 7.5-3.357 7.5-7.5v-58.859c0-4.143-3.357-7.5-7.5-7.5h-41.129c-4.143 0-7.5 3.357-7.5 7.5v58.859c0 4.143 3.357 7.5 7.5 7.5zm-33.629-58.859h26.129v43.859h-26.129z"/><path d="m45.648 244.601c0 4.143 3.358 7.5 7.5 7.5h284.911c4.143 0 7.5-3.357 7.5-7.5s-3.357-7.5-7.5-7.5h-284.911c-4.142 0-7.5 3.357-7.5 7.5z"/><path d="m325.815 334v-37.579c0-4.143-3.357-7.5-7.5-7.5h-245.341c-4.142 0-7.5 3.357-7.5 7.5v37.579c0 4.143 3.358 7.5 7.5 7.5h115.129v115.615c0 4.143 3.358 7.5 7.5 7.5s7.5-3.357 7.5-7.5v-115.615h115.211c4.143 0 7.501-3.357 7.501-7.5zm-245.341-30.079h107.629v22.579h-107.629zm230.341 22.579h-107.63v-22.579h107.629v22.579z"/><path d="m154.338 364.079h-65.86c-4.142 0-7.5 3.357-7.5 7.5s3.358 7.5 7.5 7.5h65.86c4.142 0 7.5-3.357 7.5-7.5s-3.358-7.5-7.5-7.5z"/><path d="m154.338 401.658h-65.86c-4.142 0-7.5 3.357-7.5 7.5s3.358 7.5 7.5 7.5h65.86c4.142 0 7.5-3.357 7.5-7.5s-3.358-7.5-7.5-7.5z"/><path d="m154.338 439.237h-65.86c-4.142 0-7.5 3.357-7.5 7.5s3.358 7.5 7.5 7.5h65.86c4.142 0 7.5-3.357 7.5-7.5s-3.358-7.5-7.5-7.5z"/><path d="m302.729 364.079h-65.86c-4.142 0-7.5 3.357-7.5 7.5s3.358 7.5 7.5 7.5h65.86c4.143 0 7.5-3.357 7.5-7.5s-3.358-7.5-7.5-7.5z"/><path d="m302.729 401.658h-65.86c-4.142 0-7.5 3.357-7.5 7.5s3.358 7.5 7.5 7.5h65.86c4.143 0 7.5-3.357 7.5-7.5s-3.358-7.5-7.5-7.5z"/><path d="m302.729 439.237h-65.86c-4.142 0-7.5 3.357-7.5 7.5s3.358 7.5 7.5 7.5h65.86c4.143 0 7.5-3.357 7.5-7.5s-3.358-7.5-7.5-7.5z"/><path d="m449.674 361.95c3.688-1.887 5.147-6.405 3.261-10.093s-6.405-5.148-10.093-3.261c-5.419 2.772-11.25 4.178-17.332 4.178-21.129 0-38.318-17.243-38.318-38.438s17.189-38.438 38.318-38.438 38.319 17.243 38.319 38.438c0 5.722-1.234 11.236-3.67 16.393-1.77 3.745-.167 8.216 3.578 9.984 3.745 1.771 8.215.168 9.984-3.578 3.389-7.175 5.107-14.845 5.107-22.799 0-29.466-23.919-53.438-53.319-53.438-29.399 0-53.318 23.973-53.318 53.438s23.919 53.438 53.318 53.438c8.481 0 16.611-1.96 24.165-5.824z"/><path d="m511.448 405.94c0-11.304-9.196-20.5-20.5-20.5h-17.688c22.813-15.413 37.846-41.533 37.846-71.104 0-47.264-38.398-85.716-85.596-85.716-12.41 0-24.2 2.68-34.855 7.458v-143.745c0-1.961-.81-3.917-2.196-5.304l-84.834-84.833c-1.388-1.387-3.341-2.196-5.303-2.196h-270.27c-15.164 0-27.5 12.336-27.5 27.5v42.167c0 4.143 3.358 7.5 7.5 7.5s7.5-3.357 7.5-7.5v-42.167c0-6.893 5.607-12.5 12.5-12.5h262.77v57.333c0 15.163 12.337 27.5 27.5 27.5h57.333v144.894c-21.621 15.573-35.74 40.963-35.74 69.609 0 29.571 15.033 55.692 37.846 71.104h-17.689c-11.304 0-20.5 9.196-20.5 20.5v11.187c0 4.931 1.751 9.459 4.663 13-2.911 3.541-4.663 8.069-4.663 13v11.187c0 4.931 1.751 9.459 4.663 13-2.911 3.541-4.663 8.069-4.663 13v11.186c0 1.907.282 3.747.771 5.5h-312.291c-6.893 0-12.5-5.607-12.5-12.5v-382c0-4.143-3.358-7.5-7.5-7.5s-7.5 3.357-7.5 7.5v382c0 15.163 12.336 27.5 27.5 27.5h462.897c11.304 0 20.5-9.196 20.5-20.5v-11.187c0-4.931-1.751-9.459-4.663-13 2.911-3.541 4.663-8.069 4.663-13v-11.187c0-4.931-1.751-9.459-4.663-13 2.911-3.541 4.663-8.069 4.663-13v-11.186zm-193.126-321.107c-6.893 0-12.5-5.607-12.5-12.5v-46.727l59.227 59.227zm36.592 229.503c0-38.993 31.669-70.716 70.596-70.716s70.596 31.723 70.596 70.716-31.669 70.716-70.596 70.716-70.596-31.723-70.596-70.716zm-.342 91.604c0-3.033 2.467-5.5 5.5-5.5h130.877c3.033 0 5.5 2.467 5.5 5.5v11.187c0 3.032-2.467 5.5-5.5 5.5h-130.877c-3.033 0-5.5-2.468-5.5-5.5zm141.876 37.187v11.187c0 3.033-2.467 5.5-5.5 5.5h-130.876c-3.033 0-5.5-2.467-5.5-5.5v-11.187c0-3.032 2.467-5.5 5.5-5.5h130.877c3.033 0 5.499 2.468 5.499 5.5zm0 48.373c0 3.032-2.467 5.5-5.5 5.5h-130.876c-3.033 0-5.5-2.468-5.5-5.5v-11.187c0-3.033 2.467-5.5 5.5-5.5h130.877c3.033 0 5.5 2.467 5.5 5.5v11.187z"/></g></svg>