<?xml version="1.0" encoding="UTF-8"?>
<svg xmlns="http://www.w3.org/2000/svg" viewBox="0 0 389.15 97.59">
  <g id="Ebene_1" data-name="Ebene 1">
    <g>
      <path d="M147.65,55.08c-2.16,0-3.41-1.49-3.41-6.47V31.75c0-8.49-3.82-11.9-11.41-11.9-6.91,0-12.02,3.23-13.56,8.94,.2,1.32,1.01,2.1,2.4,2.1s2.21-.77,2.67-2.4l1.38-4.88c2.16-1.05,4.24-1.46,6.37-1.46,5.67,0,8.4,2.01,8.4,10.08v2.22c-3.39,.76-7.09,1.67-10.32,2.75-8.6,2.97-11.84,6.45-11.84,11.45,0,5.97,4.25,9.18,9.73,9.18,4.89,0,8.04-2.29,12.52-7.03,.45,4.38,2.36,6.93,5.9,6.93,2.1,0,3.93-.9,5.4-2.81l-1.07-1.32c-1.16,.99-2.04,1.45-3.16,1.45Zm-18.24-.43c-4.24,0-7.09-2.28-7.09-6.69,0-3.25,2.08-6.2,8.54-8.65,2.71-1.03,6.33-2.09,9.62-2.89v12.08c-4.69,4.38-7.45,6.14-11.07,6.14Z" style="fill: #181716;"/>
      <path d="M210.49,40.83v-7.91c0-9.47-3.54-13.06-9.51-13.06-4.77,0-9.61,2.45-14.06,7.67-1.17-5.49-4.23-7.67-8.71-7.67s-9.3,2.67-13.87,7.88l-.39-7.07-.92-.58-9.3,2.41v1.99l6.7,.28c.15,3.55,.23,7.5,.23,12.38v3.68c0,3.73-.05,9.4-.14,13.32l-6.41,.72v1.99h16.34v-1.99l-5.88-.71c-.1-3.92-.14-9.59-.14-13.32v-10.63c5.21-5.46,9.07-6.89,12.55-6.89,4.08,0,6.73,2.7,6.73,10.16v7.36c0,3.85-.05,9.43-.14,13.32l-6.41,.72v1.99h16.34v-1.99l-5.88-.71c-.09-3.88-.14-9.48-.14-13.32v-7.57c0-1.24-.06-2.38-.17-3.43,4.89-5.13,9-6.52,12.42-6.52,4.37,0,7.03,2.56,7.03,10.1v7.43c0,3.85-.05,9.43-.14,13.32l-6.42,.72v1.99h16.34v-1.99l-5.88-.71c-.09-3.88-.14-9.48-.14-13.32Z" style="fill: #181716;"/>
      <path d="M241.35,19.86c-4.08,0-8.52,1.75-12.3,6.18V11.45l.22-10.84-1.16-.61-9.42,1.94v1.99l6.7,.31V40.83c0,3.73-.05,9.39-.14,13.31l-6.45,.73v1.99l9.9,.49,.38-5.4c3.62,4.44,7.74,5.9,11.58,5.9,9.11,0,15.38-7.71,15.38-19.47,0-11.12-6.05-18.52-14.69-18.52Zm-1.17,35.15c-3.86,0-7.34-1.59-11.03-5.35V28.35c4.15-4.28,7.73-5.65,11.19-5.65,6.75,0,11.61,5.53,11.61,15.96,0,11.34-5.5,16.35-11.77,16.35Z" style="fill: #181716;"/>
      <path d="M268.42,40.83v-10.71l.18-9.45-.92-.58-9.95,2.41v1.99l6.8,.28c.15,4.05,.18,7.86,.18,12.38v3.68c0,3.73-.05,9.39-.14,13.31l-6.48,.73v1.99h16.34v-1.99l-5.88-.71c-.09-3.92-.14-9.59-.14-13.32Z" style="fill: #181716;"/>
      <path d="M266.23,9.01c1.92,0,3.5-1.35,3.5-3.41s-1.58-3.41-3.5-3.41-3.5,1.32-3.5,3.41,1.58,3.41,3.5,3.41Z" style="fill: #181716;"/>
      <path d="M294.99,52.91c-7.13,0-12.2-5.24-12.2-14.82s4.74-15,11.25-15c1.25,0,2.65,.19,4.1,.61l1.41,5.09c.53,2.11,1.6,3.65,4.15,3.65,1.96,0,3.13-.94,3.53-2.89-.97-5.68-6.62-9.92-13.48-9.92-9.22,0-17.66,7.18-17.66,19.19s6.68,19.04,17.14,19.04c7.18,0,12.1-3.48,14.21-9.81l-1.88-1c-2.36,3.74-6.18,5.86-10.57,5.86Z" style="fill: #181716;"/>
      <path d="M329.17,19.63c-8.9,0-17.52,6.63-17.52,19.25s8.56,18.98,17.52,18.98,17.52-6.35,17.52-18.98-8.76-19.25-17.52-19.25Zm0,34.77c-6.65,0-10.3-5.24-10.3-15.5s3.65-15.8,10.3-15.8,10.3,5.53,10.3,15.8-3.8,15.5-10.3,15.5Z" style="fill: #181716;"/>
      <path d="M383.79,53.06c-.08-3.79-.12-8.74-.12-12.24v-7.13c0-10.01-3.2-14.07-9.77-14.07-4.78,0-10,2.85-13.7,6.92l-.63-6.15-1.16-.77-10.65,4.61v2.69l6.03,.69c.15,3.05,.23,5.38,.23,9.58v3.64c0,3.41-.04,8.44-.12,12.27l-5.67,1.04v2.72h17.7v-2.72l-5.35-1.07c-.08-3.83-.12-8.84-.12-12.24v-11.07c3.9-3.27,6.92-4.67,10.45-4.67,4.49,0,6.29,2.26,6.29,9.23v6.51c0,3.51-.04,8.48-.12,12.27l-5.66,1.04v2.72h17.71v-2.72l-5.36-1.07Z" style="fill: #181716;"/>
    </g>
    <g>
      <path d="M249.98,91c0,.76,.04,1.5,.14,2.09h-1.44l-.13-1.1h-.05c-.49,.68-1.42,1.3-2.67,1.3-1.76,0-2.66-1.24-2.66-2.5,0-2.11,1.87-3.26,5.24-3.24v-.18c0-.72-.2-2.02-1.98-2.02-.81,0-1.66,.25-2.27,.65l-.36-1.04c.72-.47,1.76-.77,2.86-.77,2.67,0,3.31,1.82,3.31,3.57v3.26Zm-1.53-2.36c-1.73-.04-3.69,.27-3.69,1.96,0,1.03,.68,1.51,1.49,1.51,1.13,0,1.85-.72,2.11-1.46,.05-.16,.09-.34,.09-.5v-1.51Z" style="fill: #565e61;"/>
      <path d="M258.87,92.77c-.41,.22-1.33,.52-2.5,.52-2.63,0-4.34-1.8-4.34-4.47s1.84-4.63,4.68-4.63c.94,0,1.76,.23,2.2,.45l-.36,1.22c-.38-.22-.97-.41-1.84-.41-2,0-3.08,1.48-3.08,3.29,0,2.02,1.3,3.26,3.02,3.26,.9,0,1.5-.23,1.95-.43l.27,1.19Z" style="fill: #565e61;"/>
      <path d="M266.95,92.77c-.41,.22-1.33,.52-2.5,.52-2.63,0-4.34-1.8-4.34-4.47s1.84-4.63,4.68-4.63c.94,0,1.76,.23,2.2,.45l-.36,1.22c-.38-.22-.97-.41-1.84-.41-2,0-3.08,1.48-3.08,3.29,0,2.02,1.3,3.26,3.02,3.26,.9,0,1.5-.23,1.95-.43l.27,1.19Z" style="fill: #565e61;"/>
      <path d="M276.71,88.66c0,3.22-2.23,4.63-4.34,4.63-2.36,0-4.18-1.73-4.18-4.48,0-2.92,1.91-4.63,4.32-4.63s4.2,1.82,4.2,4.48Zm-6.91,.09c0,1.91,1.1,3.35,2.65,3.35s2.65-1.42,2.65-3.38c0-1.48-.74-3.35-2.61-3.35s-2.68,1.73-2.68,3.39Z" style="fill: #565e61;"/>
      <path d="M286.13,90.71c0,.9,.02,1.69,.07,2.38h-1.4l-.09-1.42h-.04c-.41,.7-1.33,1.62-2.88,1.62-1.37,0-3.01-.76-3.01-3.82v-5.1h1.58v4.83c0,1.66,.5,2.77,1.94,2.77,1.06,0,1.8-.74,2.09-1.44,.09-.23,.14-.52,.14-.81v-5.35h1.58v6.34Z" style="fill: #565e61;"/>
      <path d="M288.88,86.74c0-.9-.02-1.64-.07-2.36h1.41l.09,1.44h.04c.43-.83,1.44-1.64,2.88-1.64,1.21,0,3.08,.72,3.08,3.71v5.2h-1.58v-5.02c0-1.4-.52-2.58-2.02-2.58-1.04,0-1.85,.74-2.12,1.62-.07,.2-.11,.47-.11,.74v5.24h-1.58v-6.36Z" style="fill: #565e61;"/>
      <path d="M300.83,82.29v2.09h2.27v1.21h-2.27v4.7c0,1.08,.31,1.69,1.19,1.69,.43,0,.68-.04,.92-.11l.07,1.19c-.31,.13-.79,.23-1.41,.23-.74,0-1.33-.25-1.71-.68-.45-.47-.61-1.24-.61-2.27v-4.75h-1.35v-1.21h1.35v-1.6l1.55-.49Z" style="fill: #565e61;"/>
      <path d="M306.77,81.93c.02,.54-.38,.97-1.01,.97-.56,0-.96-.43-.96-.97s.41-.99,.99-.99,.97,.43,.97,.99Zm-1.76,11.16v-8.71h1.58v8.71h-1.58Z" style="fill: #565e61;"/>
      <path d="M309.34,86.74c0-.9-.02-1.64-.07-2.36h1.41l.09,1.44h.04c.43-.83,1.44-1.64,2.88-1.64,1.21,0,3.08,.72,3.08,3.71v5.2h-1.58v-5.02c0-1.4-.52-2.58-2.02-2.58-1.04,0-1.85,.74-2.12,1.62-.07,.2-.11,.47-.11,.74v5.24h-1.58v-6.36Z" style="fill: #565e61;"/>
      <path d="M326.89,91.83c0,2-.4,3.22-1.24,3.98-.85,.79-2.07,1.04-3.17,1.04s-2.2-.25-2.9-.72l.4-1.21c.58,.36,1.48,.68,2.56,.68,1.62,0,2.81-.85,2.81-3.04v-.97h-.04c-.49,.81-1.42,1.46-2.77,1.46-2.16,0-3.71-1.84-3.71-4.25,0-2.95,1.93-4.63,3.93-4.63,1.51,0,2.34,.79,2.72,1.51h.04l.07-1.31h1.39c-.04,.63-.07,1.33-.07,2.39v5.06Zm-1.57-4.01c0-.27-.02-.5-.09-.72-.29-.92-1.06-1.67-2.21-1.67-1.51,0-2.59,1.28-2.59,3.29,0,1.71,.86,3.13,2.58,3.13,.97,0,1.85-.61,2.2-1.62,.09-.27,.13-.58,.13-.85v-1.57Z" style="fill: #565e61;"/>
      <path d="M335.03,79.59v18h-1.21v-18h1.21Z" style="fill: #565e61;"/>
      <path d="M349.48,80.31v10.53c0,.77,.02,1.66,.07,2.25h-1.42l-.07-1.51h-.04c-.49,.97-1.55,1.71-2.97,1.71-2.11,0-3.73-1.78-3.73-4.43-.02-2.9,1.78-4.68,3.91-4.68,1.33,0,2.23,.63,2.63,1.33h.04v-5.2h1.58Zm-1.58,7.62c0-.2-.02-.47-.07-.67-.23-1.01-1.1-1.84-2.29-1.84-1.64,0-2.61,1.44-2.61,3.37,0,1.76,.86,3.22,2.57,3.22,1.06,0,2.04-.7,2.32-1.89,.05-.22,.07-.43,.07-.68v-1.51Z" style="fill: #565e61;"/>
      <path d="M354,81.93c.02,.54-.38,.97-1.01,.97-.56,0-.95-.43-.95-.97s.41-.99,.99-.99,.97,.43,.97,.99Zm-1.76,11.16v-8.71h1.58v8.71h-1.58Z" style="fill: #565e61;"/>
      <path d="M364.01,91.83c0,2-.4,3.22-1.24,3.98-.85,.79-2.07,1.04-3.17,1.04s-2.2-.25-2.9-.72l.4-1.21c.58,.36,1.48,.68,2.56,.68,1.62,0,2.81-.85,2.81-3.04v-.97h-.04c-.49,.81-1.42,1.46-2.77,1.46-2.16,0-3.71-1.84-3.71-4.25,0-2.95,1.93-4.63,3.93-4.63,1.51,0,2.34,.79,2.72,1.51h.04l.07-1.31h1.39c-.04,.63-.07,1.33-.07,2.39v5.06Zm-1.57-4.01c0-.27-.02-.5-.09-.72-.29-.92-1.06-1.67-2.21-1.67-1.51,0-2.59,1.28-2.59,3.29,0,1.71,.86,3.13,2.58,3.13,.97,0,1.85-.61,2.2-1.62,.09-.27,.13-.58,.13-.85v-1.57Z" style="fill: #565e61;"/>
      <path d="M368.42,81.93c.02,.54-.38,.97-1.01,.97-.56,0-.95-.43-.95-.97s.41-.99,.99-.99,.97,.43,.97,.99Zm-1.76,11.16v-8.71h1.58v8.71h-1.58Z" style="fill: #565e61;"/>
      <path d="M372.9,82.29v2.09h2.27v1.21h-2.27v4.7c0,1.08,.31,1.69,1.19,1.69,.43,0,.68-.04,.92-.11l.07,1.19c-.31,.13-.79,.23-1.4,.23-.74,0-1.33-.25-1.71-.68-.45-.47-.61-1.24-.61-2.27v-4.75h-1.35v-1.21h1.35v-1.6l1.55-.49Z" style="fill: #565e61;"/>
      <path d="M383.2,91c0,.76,.04,1.5,.14,2.09h-1.44l-.13-1.1h-.05c-.49,.68-1.42,1.3-2.67,1.3-1.76,0-2.67-1.24-2.67-2.5,0-2.11,1.87-3.26,5.24-3.24v-.18c0-.72-.2-2.02-1.98-2.02-.81,0-1.66,.25-2.27,.65l-.36-1.04c.72-.47,1.76-.77,2.86-.77,2.67,0,3.31,1.82,3.31,3.57v3.26Zm-1.53-2.36c-1.73-.04-3.69,.27-3.69,1.96,0,1.03,.68,1.51,1.49,1.51,1.13,0,1.85-.72,2.11-1.46,.05-.16,.09-.34,.09-.5v-1.51Z" style="fill: #565e61;"/>
      <path d="M385.88,80.31h1.58v12.78h-1.58v-12.78Z" style="fill: #565e61;"/>
    </g>
  </g>
  <g id="Ebene_2" data-name="Ebene 2">
    <polygon points="90.2 93.04 64.26 93.04 64.26 87.59 84.75 87.59 84.75 26.13 64.26 26.13 64.26 20.68 90.2 20.68 90.2 93.04" style="fill: #ee7100;"/>
    <polygon points="25.93 93.04 0 93.04 0 20.68 25.93 20.68 25.93 26.13 5.45 26.13 5.45 87.59 25.93 87.59 25.93 93.04" style="fill: #ee7100;"/>
    <polygon points="47.33 42.3 42.32 42.3 25.48 71.43 30.98 71.43 34.69 64.63 47.5 64.63 45.25 60.44 37.02 60.44 44.72 46.56 52.48 60.44 52.48 60.44 55.66 66.09 55.63 66.09 58.6 71.43 64.58 71.43 47.33 42.3" style="fill: #181716;"/>
  </g>
</svg>