<svg id="Capa_1" enable-background="new 0 0 512 512" height="512" viewBox="0 0 512 512" width="512" xmlns="http://www.w3.org/2000/svg"><g><g><g><g><g><g><g><path d="m158.218 62.501h-74.185c-4.144 0-7.502-3.358-7.502-7.502s3.358-7.502 7.502-7.502h74.185c4.144 0 7.502 3.358 7.502 7.502s-3.359 7.502-7.502 7.502z"/></g><g><path d="m158.218 107.613h-74.185c-4.144 0-7.502-3.358-7.502-7.502s3.358-7.502 7.502-7.502h74.185c4.144 0 7.502 3.358 7.502 7.502s-3.359 7.502-7.502 7.502z"/></g></g></g></g></g><g><path d="m130.762 466.072c-1.82 0-3.652-.544-5.389-1.941-6.265-5.039-2.84-12.672 3.381-26.529 2.827-6.297 9.242-20.588 8.963-25.518-3.361-.959-12.33 2.104-28.557 19.084-12.95 13.552-23.799 29.022-23.907 29.176-2.372 3.396-7.048 4.228-10.445 1.855-3.396-2.373-4.228-7.048-1.856-10.444.464-.665 11.533-16.46 25.256-30.842 7.766-8.141 31.398-32.913 48.861-20.789 10.961 7.61 3.853 24.682-3.715 41.588 30.393-20.195 41.619-14.979 56.469-5.131 8.313 5.514 16.908 11.216 35.171 11.216 4.144 0 7.502 3.358 7.502 7.502s-3.358 7.502-7.502 7.502c-22.786 0-34.737-7.928-43.465-13.716-6.674-4.427-10.118-6.535-15.598-6.035-7.428.677-18.436 6.491-33.654 17.775-2.709 2.009-7.076 5.246-11.515 5.247z"/></g></g><path d="m475.819 129.338-11.382-8.105c-6.53-4.653-15.595-3.132-20.248 3.405l-11.264 15.819c-5.124.357-10.055 2.913-13.261 7.415l-149.942 210.569c-20.117 28.253-25.352 51.372-31.006 65.046-2.526 6.899-.203 14.399 5.783 18.661 5.998 4.271 13.846 3.994 19.526-.64 11.059-9.802 31.203-22.318 51.325-50.576l138.214-194.102 9.255 6.59c1.142.813 1.385 2.384.589 3.502l-32.34 45.416c-2.403 3.375-1.616 8.06 1.759 10.463s8.059 1.617 10.463-1.759l32.34-45.416c5.602-7.867 3.759-18.825-4.107-24.427l-9.256-6.59 3.024-4.246c3.103-4.357 4.075-9.775 2.676-14.968l11.255-15.807c4.656-6.534 3.136-15.595-3.403-20.25zm-19.69 4.399 10.591 7.542-8.636 12.128-10.592-7.542zm-24.244 22.838c.887-1.248 2.626-1.537 3.868-.652l16.665 11.867c1.241.884 1.546 2.614.652 3.868l-117.556 165.09-21.184-15.085zm-128.756 225.654c-9.035 12.69-19.737 24.116-31.808 33.962l-16.78 13.691c-.243.2-.651.532-1.339.044-.686-.488-.504-.984-.396-1.28l7.447-20.335c5.36-14.631 12.657-28.481 21.691-41.167l23.683-33.258 21.184 15.085z"/><path d="m400.376 154.85c4.144 0 7.502-3.358 7.502-7.502v-36.862c0-8.761-3.412-16.998-9.607-23.195l-77.684-77.683c-6.196-6.196-14.434-9.608-23.196-9.608h-226.411c-22.552 0-40.9 18.347-40.9 40.9v430.2c0 22.552 18.347 40.9 40.9 40.9h295.999c22.552 0 40.9-18.347 40.9-40.9v-171.777c0-4.144-3.358-7.502-7.502-7.502s-7.502 3.358-7.502 7.502v171.777c0 14.279-11.617 25.896-25.896 25.896h-295.999c-14.279 0-25.896-11.617-25.896-25.896v-430.2c0-14.279 11.617-25.896 25.896-25.896h226.412c1.01 0 2.002.101 2.978.265v51.341c0 22.552 18.347 40.9 40.899 40.9h51.342c.164.976.265 1.968.265 2.977v36.862c-.001 4.143 3.357 7.501 7.5 7.501zm-85.003-88.24v-40.996l66.893 66.892h-40.998c-14.279 0-25.895-11.617-25.895-25.896z"/></g></svg>