<svg id="Capa_1" enable-background="new 0 0 512 512" height="512" viewBox="0 0 512 512" width="512" xmlns="http://www.w3.org/2000/svg"><g><path d="m301 90c12.406 0 22.5 10.093 22.5 22.5h15c0-20.678-16.822-37.5-37.5-37.5-18.11 0-33.261 12.904-36.745 30h-15.755v15h15v15h-15v15h15.755c3.484 17.096 18.635 30 36.745 30 20.678 0 37.5-16.822 37.5-37.5h-15c0 12.407-10.094 22.5-22.5 22.5-9.777 0-18.114-6.271-21.21-15h21.21v-15h-22.5v-15h22.5v-15h-21.21c3.096-8.73 11.433-15 21.21-15z"/><path d="m466 497h-157.5v15h172.5v-60h-15z"/><path d="m136 52.5c0-14.676-6.053-27.964-15.793-37.5h173.293v-15h-210c-28.948 0-52.5 23.551-52.5 52.5v37.5h15v-37.5c0-20.678 16.823-37.5 37.5-37.5s37.5 16.822 37.5 37.5v459.5h172.5v-15h-157.5z"/><path d="m428.5 0h-120v15h120c20.678 0 37.5 16.822 37.5 37.5v384.5h15v-384.5c0-28.949-23.552-52.5-52.5-52.5z"/><path d="m61 158.5h15v45h-15z"/><path d="m151 407h15v45h-15z"/><path d="m61 218.5h15v15h-15z"/><path d="m151 467h15v15h-15z"/><path d="m451 112.499v-59.999c0-12.407-10.094-22.5-22.5-22.5h-15v15h15c4.065 0 7.5 3.435 7.5 7.5v59.999z"/><path d="m383.501 30h15v15h-15z"/><path d="m46 105h-15v158.5h75v-15h-60z"/><path d="m278.5 292.498h104.999v15h-104.999z"/><path d="m338.499 412.497h45v15h-45z"/><path d="m278.5 329.998h104.999v15h-104.999z"/><path d="m278.5 367.497h104.999v15h-104.999z"/><path d="m278.5 217.499h104.999v15h-104.999z"/><path d="m360.999 120h15.001v15h-15.001z"/><path d="m278.5 254.999h104.999v15h-104.999z"/><path d="m211 120h15v15h-15z"/><path d="m203.5 329.998h60v15h-60z"/><path d="m308.499 412.497h15v15h-15z"/><path d="m203.5 217.499h60v15h-60z"/><path d="m203.5 254.999h60v15h-60z"/><path d="m203.5 367.497h60v15h-60z"/><path d="m203.5 292.498h60v15h-60z"/></g></svg>