<svg id="Capa_1" enable-background="new 0 0 512 512" height="512" viewBox="0 0 512 512" width="512" xmlns="http://www.w3.org/2000/svg"><g><path d="m338.471 256.19c-38.755 0-73.536 17.329-97.012 44.643h-150.854v14.994h139.751c-11.162 17.614-18.136 38.127-19.524 60.134h-120.227v14.994h120.152c.798 14.928 4.18 29.271 9.747 42.537l-14.433 9.056-25.49-15.993-25.49 15.993-25.49-15.992-25.49 15.993-25.495-15.993-17.997 11.29v-422.852h239.901v231.834l14.994-4.001v-242.827h-269.89v464.952l32.991-20.697 25.495 15.993 25.49-15.992 25.49 15.993 25.49-15.993 25.49 15.993 21.076-13.226c17.972 31.751 49.2 55.366 86.944 62.653l2.843-14.722c-52.945-10.221-91.373-56.845-91.373-110.86 0-62.26 50.651-112.911 112.911-112.911s112.911 50.652 112.911 112.911c0 54.453-38.797 101.147-92.251 111.027l2.725 14.744c60.563-11.194 104.519-64.088 104.519-125.77.001-70.527-57.376-127.905-127.904-127.905z"/><path d="m330.997 496.762-.982 14.963c2.788.183 5.632.275 8.456.275 2.482 0 4.989-.072 7.449-.214l-.863-14.968c-4.644.268-9.429.25-14.06-.056z"/><path d="m436.708 384.096c0-54.168-44.069-98.237-98.237-98.237-54.167 0-98.236 44.069-98.236 98.237 0 54.167 44.069 98.236 98.236 98.236 54.168 0 98.237-44.069 98.237-98.236zm-181.479 0c0-45.9 37.342-83.243 83.242-83.243s83.243 37.343 83.243 83.243-37.343 83.242-83.243 83.242-83.242-37.342-83.242-83.242z"/><path d="m385.033 426.882-10.603-10.603-12.798 12.798h-23.777l-10.602-10.602v-11.917h29.488v-14.994h-29.488v-14.965h29.488v-14.994h-29.488v-11.889l10.602-10.602h23.777l12.798 12.799 10.603-10.603-17.19-17.19h-36.198l-19.386 19.386v18.099h-15.047v14.994h15.047v14.965h-15.047v14.994h15.047v18.127l19.386 19.386h36.198z"/><path d="m270.531 45.778h-179.926v44.981h44.982v-14.993h-29.988v-14.994h149.938v14.994h-104.956v14.993h119.95z"/><path d="m90.605 120.747h29.988v14.994h-29.988z"/><path d="m90.605 150.767h179.926v14.994h-179.926z"/><path d="m90.605 195.886h29.988v14.994h-29.988z"/><path d="m90.605 225.704h179.926v14.994h-179.926z"/><path d="m90.605 270.59h29.988v14.994h-29.988z"/><path d="m90.605 345.719h29.988v14.994h-29.988z"/></g></svg>