<svg enable-background="new 0 0 64 64" height="512" viewBox="0 0 64 64" width="512" xmlns="http://www.w3.org/2000/svg"><g id="Icons"><g><path d="m53.896 10.491c-3.17.137-6.119-2.01-6.829-5.022-.264-1.159-1.266-1.969-2.437-1.969h-25.26c-1.171 0-2.173.81-2.437 1.965-.711 3.006-3.663 5.172-6.832 5.025-1.466-.048-2.601 1.166-2.601 2.58v12.99c0 7.116 2.104 14.032 6.084 19.998l.832-.555c-3.87-5.802-5.916-12.525-5.916-19.443v-12.99c0-.866.697-1.625 1.558-1.58 3.657.156 7.029-2.331 7.85-5.799.159-.701.761-1.191 1.462-1.191h25.26c.701 0 1.303.49 1.464 1.194.819 3.477 4.188 5.949 7.848 5.796.861-.037 1.559.711 1.559 1.58v12.99c0 6.906-2.046 13.633-5.916 19.453l.832.555c3.98-5.985 6.084-12.904 6.084-20.008v-12.99c-.001-1.46-1.208-2.657-2.605-2.579z"/><path d="m49.532 36.794.936.353c1.349-3.58 2.032-7.31 2.032-11.087v-10.34c0-.702-.512-1.319-1.214-1.468-3.245-.706-6.017-2.898-7.409-5.855-.243-.545-.775-.897-1.357-.897h-21.04c-.573 0-1.107.348-1.363.888-1.387 2.966-4.154 5.157-7.4 5.863-.705.149-1.217.767-1.217 1.469v10.34c0 3.899.684 7.693 2.032 11.276l.936-.352c-1.306-3.47-1.968-7.146-1.968-10.924v-10.34c0-.236.174-.438.427-.491 3.552-.772 6.578-3.171 8.096-6.415.09-.19.27-.313.458-.313h21.039c.188 0 .361.119.448.313 1.528 3.246 4.559 5.645 8.108 6.417.25.053.424.254.424.49v10.34c0 3.655-.662 7.266-1.968 10.733z"/><path d="m47 17.5h-30c-.827 0-1.5.673-1.5 1.5v40c0 .827.673 1.5 1.5 1.5h30c.827 0 1.5-.673 1.5-1.5v-40c0-.827-.673-1.5-1.5-1.5zm.5 41.5c0 .275-.225.5-.5.5h-30c-.275 0-.5-.225-.5-.5v-40c0-.275.225-.5.5-.5h30c.275 0 .5.225.5.5z"/><path d="m38.544 39.937c-.585-.585-1.534-.583-2.117 0l-6.497 6.496-2.356-2.356c-.583-.585-1.534-.583-2.117 0l-1.42 1.42c-.583.585-.583 1.534 0 2.117l4.83 4.83c.587.587 1.543.586 2.127 0l8.971-8.97c.584-.584.584-1.533 0-2.117zm.713 2.83-8.971 8.97c-.197.197-.519.194-.713 0l-4.83-4.83c-.193-.193-.193-.509 0-.703l1.42-1.42c.194-.194.509-.194.703 0l2.71 2.71c.195.195.512.195.707 0l6.851-6.85c.193-.192.51-.193.703 0l1.42 1.42c.193.194.193.508 0 .703z"/><path d="m26 24.5h12v1h-12z"/><path d="m22.25 30.5h19.5v1h-19.5z"/><path d="m22.25 34.5h19.5v1h-19.5z"/></g></g></svg>