<svg id="Capa_1" enable-background="new 0 0 512 512" height="512" viewBox="0 0 512 512" width="512" xmlns="http://www.w3.org/2000/svg"><g><path d="m511.932 354.777c-1.075-18.889-16.728-34.432-35.634-35.384-3.483-.177-6.951.127-10.318.898-.054.012-.142.032-.3-.093-.099-.079-.263-.253-.263-.539v-48.676c0-5.758-2.18-11.015-5.755-14.995 3.569-3.976 5.755-9.218 5.755-14.971v-100.77c0-4.135-3.352-7.488-7.488-7.488s-7.488 3.353-7.488 7.488v100.77c0 4.128-3.359 7.488-7.488 7.488h-179.465v-56.222c0-.266.154-.428.246-.501.141-.112.218-.096.262-.084 3.337.769 6.785 1.078 10.242.918 18.86-.873 34.569-16.306 35.764-35.134.668-10.519-2.92-20.529-10.104-28.185-7.085-7.55-17.085-11.88-27.437-11.88-2.794 0-5.582.309-8.287.918-.075.016-.3.067-.516-.106-.17-.135-.17-.275-.17-.358v-48.816c0-4.129 3.359-7.488 7.488-7.488h48.688c4.795 0 9.26-2.154 12.25-5.91 2.937-3.689 4.019-8.419 2.97-12.981-.463-2.016-.646-4.105-.542-6.206.563-11.379 9.903-20.804 21.263-21.457 6.314-.369 12.319 1.815 16.894 6.134 4.581 4.324 7.103 10.174 7.103 16.47 0 1.682-.186 3.36-.553 4.985-1.052 4.656.047 9.455 3.016 13.168 2.943 3.682 7.338 5.794 12.055 5.794h48.834c4.129 0 7.488 3.359 7.488 7.488v36.189c0 4.135 3.352 7.488 7.488 7.488s7.488-3.352 7.488-7.488v-36.186c0-12.386-10.077-22.463-22.463-22.463h-48.834c-.108 0-.233-.013-.358-.169-.174-.217-.123-.444-.105-.52.61-2.708.92-5.495.92-8.284 0-10.309-4.3-20.281-11.797-27.359-7.602-7.177-17.544-10.794-28.035-10.197-18.892 1.087-34.424 16.754-35.361 35.669-.171 3.478.134 6.945.906 10.301.013.053.032.14-.092.296-.078.097-.25.262-.534.262h-48.688c-5.749 0-10.998 2.173-14.975 5.738-3.977-3.565-9.227-5.738-14.976-5.738h-49.384c-4.929 0-9.451 2.264-12.407 6.211-2.937 3.921-3.832 8.859-2.456 13.549.702 2.392 1.001 4.893.888 7.432-.509 11.377-9.801 20.844-21.156 21.552-6.329.393-12.367-1.768-16.968-6.091-4.605-4.328-7.142-10.19-7.142-16.508 0-2.195.311-4.36.924-6.437 1.375-4.651.488-9.559-2.433-13.467-2.921-3.909-7.574-6.242-12.447-6.242h-49.381c-12.386 0-22.463 10.077-22.463 22.463v48.712c0 .274-.159.441-.254.516-.146.118-.231.098-.276.087-3.354-.774-6.816-1.084-10.283-.914-18.904.912-34.593 16.414-35.714 35.293-.624 10.489 2.988 20.462 10.17 28.082 7.081 7.514 17.062 11.824 27.384 11.824 2.79 0 5.577-.31 8.285-.922.075-.017.3-.068.519.106.156.125.169.25.169.358v53.835c0 3.563 1.078 6.878 2.92 9.643-2.122 2.89-3.392 6.442-3.392 10.293v54.399c0 4.875 2.335 9.529 6.245 12.45 3.91 2.92 8.816 3.805 13.469 2.429 8.161-2.414 17.07-.053 22.961 6.221 4.323 4.604 6.484 10.634 6.084 16.979-.716 11.353-10.188 20.638-21.566 21.139-2.539.114-5.035-.188-7.427-.891-9.981-2.934-19.764 4.58-19.764 14.862v49.388c0 12.386 10.077 22.463 22.463 22.463h3.479c4.136 0 7.488-3.352 7.488-7.488s-3.352-7.488-7.488-7.488h-3.479c-4.129 0-7.488-3.359-7.488-7.488v-49.388c0-.072 0-.262.213-.421.17-.127.285-.094.356-.074 3.978 1.169 8.124 1.669 12.305 1.483 18.915-.831 34.664-16.274 35.855-35.157.663-10.516-2.929-20.521-10.112-28.172-7.085-7.546-17.083-11.873-27.431-11.873-3.638 0-7.236.519-10.697 1.543-.053.016-.119.035-.255-.067-.154-.115-.232-.267-.232-.452v-54.399c0-1.364 1.11-2.473 2.474-2.473h53.834c4.719 0 9.114-2.113 12.057-5.796 2.968-3.715 4.066-8.515 3.013-13.171-.368-1.623-.554-3.299-.554-4.98 0-6.294 2.524-12.143 7.107-16.468 4.582-4.324 10.588-6.495 16.917-6.136 11.356.659 20.69 10.087 21.251 21.463.103 2.099-.079 4.187-.543 6.204-1.049 4.559.032 9.289 2.968 12.977 2.989 3.755 7.454 5.909 12.248 5.909h56.18v56.784c-.104.012-.189-.004-.23-.014-2.707-.611-5.494-.921-8.284-.921-10.31 0-20.283 4.301-27.361 11.798-7.178 7.603-10.798 17.56-10.194 28.036 1.087 18.892 16.754 34.423 35.668 35.358 3.476.172 6.944-.132 10.302-.905.025-.005.058-.009.099-.004v49.318c0 4.129-3.359 7.488-7.488 7.488 0 0-48.673 0-48.692 0-9.811 0-17.451 9.167-15.215 18.886.464 2.017.646 4.104.543 6.203-.561 11.376-9.895 20.804-21.251 21.463-6.324.367-12.334-1.812-16.917-6.136-4.583-4.325-7.107-10.174-7.107-16.468 0-1.681.186-3.357.554-4.979 1.053-4.656-.045-9.457-3.013-13.172-2.943-3.683-7.338-5.796-12.057-5.796h-10.983c-4.136 0-7.488 3.353-7.488 7.488s3.352 7.488 7.488 7.488h10.983c.083 0 .222 0 .358.169.174.218.123.445.105.519-.612 2.706-.922 5.493-.922 8.284 0 10.308 4.302 20.28 11.805 27.359 7.062 6.664 16.147 10.261 25.795 10.261 19.623-.001 36.64-16.107 37.608-35.742.171-3.475-.135-6.94-.908-10.298-.012-.052-.031-.138.091-.292.078-.097.25-.26.531-.26h48.692c5.86 0 11.193-2.265 15.196-5.954 4.005 3.693 9.349 5.954 15.213 5.954h49.385c4.875 0 9.528-2.335 12.449-6.245 2.919-3.908 3.805-8.816 2.43-13.466-2.195-7.427.363-17.167 5.794-22.537 4.272-4.225 9.917-6.542 15.923-6.542.087 0 .175 0 .262.001 12.551.141 22.382 10.087 22.381 22.644 0 2.202-.312 4.372-.927 6.452-1.372 4.641-.486 9.542 2.431 13.445 2.923 3.911 7.58 6.247 12.455 6.247h49.392c12.386 0 22.463-10.077 22.463-22.463v-48.817c0-.107.013-.232.169-.356.218-.175.448-.124.521-.107 2.699.609 5.48.918 8.267.918 10.304 0 20.273-4.296 27.351-11.787 7.174-7.596 10.799-17.547 10.205-28.018zm-320.16-106.272c-.218-.035-.36-.161-.428-.245-.122-.154-.103-.241-.091-.292.773-3.359 1.078-6.824.908-10.299-.932-18.909-16.455-34.58-35.341-35.676-10.478-.61-20.451 3.012-28.062 10.195-7.502 7.079-11.805 17.051-11.805 27.359 0 2.791.31 5.578.922 8.285.018.074.068.301-.105.519-.08.099-.159.137-.229.154h-53.492c-1.364 0-2.473-1.109-2.473-2.473v-53.835c0-4.719-2.113-9.114-5.796-12.057-2.79-2.23-6.193-3.404-9.687-3.404-1.157 0-2.324.129-3.483.391-1.624.367-3.301.553-4.982.553-6.304 0-12.159-2.528-16.486-7.119-4.322-4.587-6.495-10.597-6.12-16.924.676-11.352 10.113-20.675 21.486-21.223 2.102-.098 4.182.084 6.195.548 4.554 1.051 9.281-.027 12.967-2.959 3.753-2.986 5.905-7.445 5.905-12.236v-48.712c0-4.129 3.359-7.488 7.488-7.488h49.382c.185 0 .336.078.451.231.102.138.083.205.067.259-1.021 3.454-1.539 7.048-1.539 10.68 0 10.343 4.324 20.338 11.862 27.421 7.646 7.183 17.651 10.778 28.155 10.123 18.884-1.177 34.338-16.915 35.183-35.83.187-4.194-.311-8.338-1.479-12.316-.02-.069-.054-.185.074-.356.159-.212.349-.212.42-.212h49.384c4.129 0 7.488 3.359 7.488 7.488v48.815c0 4.717 2.111 9.11 5.791 12.053 3.712 2.968 8.505 4.069 13.161 3.021 1.626-.367 3.307-.552 4.996-.552 6.323 0 12.189 2.54 16.518 7.152 4.323 4.607 6.482 10.64 6.078 16.988-.719 11.32-10.167 20.599-21.511 21.124-2.092.098-4.179-.088-6.187-.551-4.551-1.05-9.27.031-12.949 2.959-3.748 2.982-5.896 7.436-5.896 12.219v56.222zm299.065 124.007c-4.323 4.576-10.17 7.096-16.464 7.096-1.678 0-3.35-.185-4.969-.551-4.66-1.052-9.459.05-13.171 3.017-3.681 2.943-5.793 7.337-5.793 12.054v48.817c0 4.129-3.359 7.488-7.488 7.488h-49.392c-.234 0-.378-.128-.459-.235-.098-.131-.08-.19-.066-.235 1.023-3.459 1.542-7.058 1.542-10.698.001-20.861-16.334-37.385-37.189-37.619-.145-.001-.29-.002-.436-.002-9.971 0-19.349 3.85-26.447 10.869-7.201 7.121-11.167 16.621-11.167 26.75 0 3.631.519 7.225 1.542 10.682.016.053.035.119-.068.257-.114.154-.266.231-.451.231h-49.385c-4.129 0-7.488-3.359-7.488-7.488l.001-48.688c0-4.795-2.154-9.26-5.909-12.25-3.689-2.937-8.417-4.019-12.98-2.97-2.018.464-4.108.643-6.208.542-11.378-.563-20.803-9.902-21.457-21.262-.364-6.319 1.814-12.319 6.133-16.894 4.324-4.581 10.174-7.104 16.472-7.104 1.682 0 3.359.186 4.985.554 4.656 1.051 9.454-.047 13.168-3.016 3.682-2.943 5.794-7.337 5.794-12.056v-56.307h179.465c4.129 0 7.488 3.359 7.488 7.488v48.676c0 4.795 2.153 9.26 5.907 12.251 3.685 2.937 8.414 4.023 12.977 2.978 2.023-.465 4.114-.645 6.217-.539 11.375.573 20.791 9.92 21.438 21.279.36 6.316-1.821 12.312-6.142 16.885z"/></g></svg>