<svg id="Capa_1" enable-background="new 0 0 512 512" height="512" viewBox="0 0 512 512" width="512" xmlns="http://www.w3.org/2000/svg"><g><g><path d="m425.832 7.483h-339.664c-5.177 0-9.374 4.197-9.374 9.374v478.287c0 5.177 4.197 9.374 9.374 9.374h267.752l81.286-84.564v-403.097c0-5.177-4.197-9.374-9.374-9.374z" fill="#faf7f7"/></g><g><path d="m435.21 16.853v403.101l-19.496 20.285v-423.386c0-5.168-4.191-9.369-9.369-9.369h19.487c5.178 0 9.378 4.201 9.378 9.369z" fill="#ede1dd"/></g><g><path d="m353.92 504.517v-75.191c0-5.177 4.197-9.374 9.374-9.374h71.912z" fill="#e1d3ce"/></g><g><path d="m76.795 375.218c4.133 0 7.483-3.35 7.483-7.483v-350.879c0-1.042.848-1.89 1.89-1.89h221.036c4.133 0 7.483-3.35 7.483-7.483s-3.35-7.483-7.483-7.483h-221.036c-9.295 0-16.857 7.562-16.857 16.856v350.878c0 4.134 3.351 7.484 7.484 7.484z"/><path d="m425.832 0h-83.866c-4.133 0-7.483 3.35-7.483 7.483s3.35 7.483 7.483 7.483h83.866c1.042 0 1.89.848 1.89 1.89v395.613h-64.429c-9.295 0-16.857 7.562-16.857 16.857v67.707h-260.268c-1.042 0-1.89-.848-1.89-1.89v-92.844c0-4.133-3.35-7.483-7.483-7.483s-7.483 3.35-7.483 7.483v92.844c0 9.295 7.562 16.856 16.857 16.856h267.751c2.036 0 3.984-.83 5.395-2.298l81.286-84.564c1.34-1.394 2.088-3.252 2.088-5.186v-403.095c0-9.294-7.562-16.856-16.857-16.856zm-34.371 454.663-30.058 31.27v-56.607c0-1.042.848-1.89 1.89-1.89h54.339z"/><path d="m177.134 94.241c-3.26-2.542-7.962-1.959-10.503 1.3l-22.202 28.472-8.965-10.011c-2.757-3.079-7.488-3.34-10.567-.583s-3.34 7.488-.583 10.567l14.936 16.68c1.422 1.588 3.451 2.492 5.575 2.492.085 0 .17-.001.255-.004 2.216-.076 4.284-1.129 5.647-2.877l27.707-35.531c2.541-3.26 1.96-7.963-1.3-10.505z"/><path d="m382.11 93.062h-168.784c-4.133 0-7.483 3.35-7.483 7.483s3.35 7.483 7.483 7.483h168.784c4.133 0 7.483-3.35 7.483-7.483.001-4.133-3.35-7.483-7.483-7.483z"/><path d="m382.11 127.788h-168.784c-4.133 0-7.483 3.35-7.483 7.483s3.35 7.483 7.483 7.483h168.784c4.133 0 7.483-3.35 7.483-7.483s-3.35-7.483-7.483-7.483z"/><path d="m382.11 285.272h-168.784c-4.133 0-7.483 3.35-7.483 7.483s3.35 7.483 7.483 7.483h168.784c4.133 0 7.483-3.35 7.483-7.483s-3.35-7.483-7.483-7.483z"/><path d="m382.11 319.998h-168.784c-4.133 0-7.483 3.35-7.483 7.483s3.35 7.483 7.483 7.483h168.784c4.133 0 7.483-3.35 7.483-7.483s-3.35-7.483-7.483-7.483z"/><path d="m177.134 190.347c-3.26-2.542-7.962-1.96-10.503 1.3l-22.202 28.472-8.965-10.011c-2.757-3.08-7.488-3.34-10.567-.583s-3.34 7.488-.583 10.567l14.936 16.681c1.422 1.588 3.451 2.492 5.575 2.492.085 0 .17-.001.255-.004 2.216-.076 4.284-1.129 5.647-2.877l27.707-35.531c2.541-3.262 1.96-7.965-1.3-10.506z"/><path d="m382.11 189.167h-168.784c-4.133 0-7.483 3.351-7.483 7.483s3.35 7.483 7.483 7.483h168.784c4.133 0 7.483-3.351 7.483-7.483s-3.35-7.483-7.483-7.483z"/><path d="m382.11 223.893h-168.784c-4.133 0-7.483 3.35-7.483 7.483s3.35 7.483 7.483 7.483h168.784c4.133 0 7.483-3.35 7.483-7.483.001-4.132-3.35-7.483-7.483-7.483z"/><path d="m169.212 287.414c-2.95-2.894-7.687-2.85-10.583.099l-11.699 11.921-11.699-11.921c-2.895-2.949-7.633-2.994-10.583-.099s-2.994 7.633-.099 10.583l11.896 12.121-11.896 12.121c-2.894 2.95-2.85 7.688.099 10.583 1.457 1.429 3.349 2.142 5.241 2.142 1.939 0 3.876-.749 5.342-2.242l11.699-11.921 11.699 11.921c1.466 1.493 3.403 2.242 5.342 2.242 1.891 0 3.785-.713 5.241-2.142 2.949-2.895 2.994-7.633.099-10.583l-11.896-12.121 11.896-12.121c2.895-2.95 2.851-7.688-.099-10.583z"/></g></g></svg>