<?xml version="1.0" encoding="iso-8859-1"?>
<!-- Generator: Adobe Illustrator 19.0.0, SVG Export Plug-In . SVG Version: 6.00 Build 0)  -->
<svg version="1.1" id="Capa_1" xmlns="http://www.w3.org/2000/svg" xmlns:xlink="http://www.w3.org/1999/xlink" x="0px" y="0px"
	 viewBox="0 0 512 512" style="enable-background:new 0 0 512 512;" xml:space="preserve">
<g>
	<g>
		<path d="M174.766,419.918c-4.142,0-7.5,3.358-7.5,7.5v14.702c0,4.142,3.358,7.5,7.5,7.5c4.142,0,7.5-3.358,7.5-7.5v-14.702
			C182.266,423.276,178.908,419.918,174.766,419.918z"/>
	</g>
</g>
<g>
	<g>
		<path d="M337.232,419.918c-4.142,0-7.5,3.358-7.5,7.5v14.702c0,4.142,3.358,7.5,7.5,7.5c4.142,0,7.5-3.358,7.5-7.5v-14.702
			C344.732,423.276,341.374,419.918,337.232,419.918z"/>
	</g>
</g>
<g>
	<g>
		<path d="M280.984,435.45c-3.118-2.726-7.856-2.409-10.583,0.711c-3.503,4.008-8.753,6.307-14.402,6.307
			c-5.65,0-10.899-2.299-14.403-6.307c-2.727-3.119-7.464-3.437-10.583-0.711c-3.119,2.726-3.437,7.464-0.711,10.583
			c6.353,7.267,15.718,11.435,25.697,11.435c9.978,0,19.344-4.168,25.696-11.435C284.421,442.915,284.103,438.176,280.984,435.45z"
			/>
	</g>
</g>
<g>
	<g>
		<circle cx="174.439" cy="68.771" r="13.08"/>
	</g>
</g>
<g>
	<g>
		<circle cx="337.559" cy="68.771" r="13.08"/>
	</g>
</g>
<g>
	<g>
		<circle cx="74.449" cy="147.82" r="13.08"/>
	</g>
</g>
<g>
	<g>
		<circle cx="437.549" cy="147.82" r="13.08"/>
	</g>
</g>
<g>
	<g>
		<path d="M255.999,197.587c-28.071,0-50.908,22.837-50.908,50.908c0,28.07,22.837,50.907,50.908,50.907
			s50.908-22.837,50.908-50.907C306.907,220.424,284.07,197.587,255.999,197.587z M255.999,284.402
			c-19.8,0-35.908-16.108-35.908-35.907c0-19.8,16.108-35.908,35.908-35.908s35.908,16.108,35.908,35.908
			C291.907,268.294,275.799,284.402,255.999,284.402z"/>
	</g>
</g>
<g>
	<g>
		<path d="M255.999,127.933c-14.711,0-26.68,11.968-26.68,26.68c0,14.712,11.969,26.68,26.68,26.68
			c14.711,0,26.68-11.969,26.68-26.68S270.71,127.933,255.999,127.933z M255.999,166.293c-6.44,0-11.68-5.24-11.68-11.68
			c0-6.44,5.24-11.68,11.68-11.68c6.44,0,11.68,5.239,11.68,11.68C267.679,161.054,262.439,166.293,255.999,166.293z"/>
	</g>
</g>
<g>
	<g>
		<path d="M508.071,213.531c-0.235-1.851-1.171-3.606-2.598-4.815l-38.736-32.768l17.355-41.484
			c1.599-3.821-0.203-8.215-4.024-9.813l-104.722-43.81V38.486c0-4.142-3.358-7.5-7.5-7.5h-72.471L260.843,1.774
			c-2.796-2.365-6.892-2.365-9.688,0l-34.532,29.212h-72.471c-4.142,0-7.5,3.358-7.5,7.5v42.355L31.93,124.651
			c-3.821,1.599-5.623,5.992-4.024,9.813l17.355,41.484c0,0-38.701,32.739-38.736,32.768c-1.651,1.397-2.656,3.559-2.656,5.726
			V504.5c0,4.054,3.45,7.5,7.5,7.5c0,0,489.245,0,489.262,0c4.046,0,7.499-3.457,7.499-7.5c0,0,0-290.041,0-290.057
			C508.129,214.138,508.11,213.833,508.071,213.531z M488.742,214.21l-56.458,44.094l28.382-67.845L488.742,214.21z M375.347,97.101
			l92.013,38.493l-59.227,141.573l-24.608,19.219l45.508-108.778c1.155-2.762,0.558-5.946-1.52-8.101
			c-12.286-12.741-19.161-29.505-19.358-47.205c-0.033-2.993-1.843-5.68-4.605-6.835l-28.203-11.799V97.101z M375.347,129.928
			l18.01,7.535c1.261,18.027,8.237,35.037,19.996,48.758l-38.006,90.848V129.928z M255.999,17.324l16.15,13.662h-32.3
			L255.999,17.324z M151.651,314.43V45.986h0.001h208.694V314.43v0.059l-15.285,11.938V108.762c0-2.993-1.78-5.7-4.528-6.886
			c-16.251-7.014-29.064-19.826-36.077-36.077c-1.186-2.749-3.893-4.528-6.886-4.528h-83.143c-2.993,0-5.7,1.78-6.886,4.528
			c-7.013,16.251-19.825,29.063-36.077,36.077c-2.749,1.186-4.528,3.893-4.528,6.886v217.665l-15.285-11.938V314.43z
			 M330.063,113.535v224.607h-0.001l-11.195,8.743c0,0-32.797-26.694-32.798-26.695c-17.284-14.068-42.86-14.065-60.14,0
			l-32.797,26.695l-11.195-8.743V113.535c16.144-8.122,29.143-21.121,37.264-37.264h73.598
			C300.92,92.414,313.919,105.414,330.063,113.535z M136.653,129.928v147.141h-0.001l-38.006-90.848
			c11.759-13.722,18.734-30.731,19.996-48.758L136.653,129.928z M44.638,135.595l92.014-38.494v16.568l-28.203,11.799
			c-2.762,1.155-4.572,3.842-4.605,6.835c-0.198,17.7-7.073,34.464-19.358,47.205c-2.078,2.155-2.675,5.339-1.52,8.101
			l45.508,108.779l-24.608-19.219L61.22,175.23L44.638,135.595z M51.332,190.46l28.383,67.845L23.256,214.21L51.332,190.46z
			 M32.464,497l46.248-37.644c3.212-2.615,3.697-7.339,1.083-10.551c-2.614-3.212-7.338-3.697-10.551-1.083l-50.375,41.003V229.817
			l162.33,126.781l-88.542,72.068c-3.212,2.615-3.697,7.339-1.082,10.551c2.579,3.169,7.38,3.665,10.551,1.082
			c0,0,133.225-108.437,133.272-108.476c11.701-9.524,29.504-9.523,41.203,0L479.534,497H32.464z M493.13,488.725L330.8,356.598
			l162.33-126.781V488.725z"/>
	</g>
</g>
<g>
</g>
<g>
</g>
<g>
</g>
<g>
</g>
<g>
</g>
<g>
</g>
<g>
</g>
<g>
</g>
<g>
</g>
<g>
</g>
<g>
</g>
<g>
</g>
<g>
</g>
<g>
</g>
<g>
</g>
</svg>
