<svg id="Capa_1" enable-background="new 0 0 512 512" height="512" viewBox="0 0 512 512" width="512" xmlns="http://www.w3.org/2000/svg"><g><path d="m421.815 286.545c22.25 0 40.353-18.102 40.353-40.353s-18.103-40.353-40.353-40.353-40.353 18.102-40.353 40.353 18.103 40.353 40.353 40.353zm0-65.705c13.979 0 25.353 11.373 25.353 25.353s-11.373 25.353-25.353 25.353-25.353-11.373-25.353-25.353 11.374-25.353 25.353-25.353z"/><path d="m496.048 203.852h-8.964v-18.245c0-6.095 1.978-12.124 5.569-16.977 8.735-11.804 13.353-25.818 13.353-40.528v-80.567c0-11.598-9.436-21.033-21.034-21.033h-6.887c-2.222 0-4.363.346-6.375.987-1.953-11.556-12.032-20.385-24.135-20.385h-6.269c-5.127 0-9.893 1.585-13.829 4.29-4.423-6.376-11.794-10.559-20.125-10.559h-6.269c-8.331 0-15.702 4.183-20.125 10.559-3.938-2.705-8.702-4.29-13.829-4.29h-6.269c-10.881 0-20.127 7.137-23.301 16.977h-78.864c-.836-10.573-9.707-18.921-20.491-18.921s-19.655 8.348-20.491 18.921h-32.943c-6.095 0-12.124-1.978-16.977-5.569-11.804-8.735-25.818-13.352-40.528-13.352h-24.149c-4.143 0-7.5 3.358-7.5 7.5s3.357 7.5 7.5 7.5h24.149c11.474 0 22.403 3.6 31.604 10.41 7.417 5.489 16.615 8.512 25.9 8.512h32.878v100.538c-17.152.162-32.184 11.787-36.63 28.384l-1.395 5.205c-3.364 12.556-13.508 21.922-25.843 24.579v-16.049c0-12.107-9.85-21.958-21.957-21.958h-101.077c-5.226 0-9.477-4.251-9.477-9.477v-6.269c0-5.226 4.251-9.477 9.477-9.477h34.703c4.143 0 7.5-3.358 7.5-7.5s-3.357-7.5-7.5-7.5h-40.971c-5.226 0-9.477-4.251-9.477-9.477v-6.269c0-5.226 4.251-9.477 9.477-9.477h40.972c4.143 0 7.5-3.358 7.5-7.5s-3.357-7.5-7.5-7.5h-34.704c-5.226 0-9.477-4.251-9.477-9.477v-6.268c0-5.226 4.252-9.477 9.478-9.477h34.702c4.143 0 7.5-3.358 7.5-7.5s-3.357-7.5-7.5-7.5h-18.748c-3.327 0-6.033-2.706-6.033-6.033v-6.887c0-3.327 2.706-6.034 6.033-6.034h21.417c4.143 0 7.5-3.358 7.5-7.5s-3.357-7.5-7.5-7.5h-21.417c-11.598 0-21.033 9.436-21.033 21.034v6.887c0 2.221.346 4.363.987 6.375-11.555 1.953-20.385 12.032-20.385 24.135v6.269c0 5.127 1.585 9.892 4.29 13.829-6.376 4.422-10.559 11.794-10.559 20.124v6.269c0 8.33 4.184 15.702 10.559 20.125-2.705 3.937-4.29 8.702-4.29 13.829v6.269c0 10.881 7.138 20.127 16.977 23.302v98.969c0 4.142 3.357 7.5 7.5 7.5s7.5-3.358 7.5-7.5v-97.795h93.58c3.836 0 6.957 3.121 6.957 6.958v111.416c0 17.303 11.673 32.515 28.386 36.993l5.204 1.395c12.556 3.364 21.923 13.508 24.58 25.842h-16.05c-12.107 0-21.957 9.85-21.957 21.958v101.08c0 5.226-4.252 9.477-9.478 9.477h-6.269c-5.226 0-9.477-4.251-9.477-9.477v-34.702c0-4.142-3.357-7.5-7.5-7.5s-7.5 3.358-7.5 7.5v40.971c0 5.226-4.251 9.477-9.477 9.477h-6.269c-5.226 0-9.478-4.251-9.478-9.477v-40.971c0-4.142-3.357-7.5-7.5-7.5s-7.5 3.358-7.5 7.5v34.702c0 5.226-4.251 9.477-9.477 9.477h-6.269c-5.226 0-9.477-4.251-9.477-9.477 0-34.37-.001.509-.001-34.702 0-4.142-3.357-7.5-7.5-7.5s-7.5 3.358-7.5 7.5c0 14.298-.001 18.943 0 18.801-.029 3.302-2.723 5.98-6.032 5.98h-6.888c-3.327 0-6.033-2.707-6.033-6.033v-80.566c0-11.476 3.6-22.404 10.41-31.605 5.488-7.417 8.511-16.615 8.511-25.899v-18.82c0-4.142-3.357-7.5-7.5-7.5s-7.5 3.358-7.5 7.5v18.82c0 6.095-1.978 12.124-5.568 16.976-8.735 11.802-13.353 25.817-13.353 40.529v80.566c0 11.598 9.436 21.033 21.033 21.033h6.888c2.222 0 4.363-.346 6.375-.987 1.953 11.556 12.032 20.385 24.135 20.385h6.269c5.127 0 9.892-1.585 13.828-4.29 4.423 6.376 11.795 10.559 20.126 10.559h6.269c8.331 0 15.702-4.183 20.125-10.559 3.937 2.705 8.701 4.29 13.828 4.29h6.269c10.882 0 20.128-7.137 23.302-16.977h63.317c1.969 2.506 5.026 4.118 8.453 4.118h34.565c3.427 0 6.484-1.612 8.453-4.118h38c6.095 0 12.123 1.978 16.976 5.569 11.804 8.735 25.818 13.352 40.529 13.352h80.566c11.598 0 21.033-9.436 21.033-21.034v-6.887c0-2.221-.346-4.363-.987-6.375 11.556-1.953 20.385-12.032 20.385-24.135v-6.269c0-5.127-1.585-9.892-4.29-13.829 6.377-4.423 10.56-11.795 10.56-20.125v-6.269c0-8.331-4.183-15.703-10.56-20.125 2.705-3.937 4.29-8.702 4.29-13.829v-6.269c0-10.881-7.138-20.127-16.977-23.302v-49.862h8.964c8.796 0 15.952-7.156 15.952-15.952v-52.777c.003-8.797-7.153-15.953-15.949-15.953zm-124.501 42.34c0-27.718 22.551-50.269 50.269-50.269s50.269 22.55 50.269 50.269-22.551 50.269-50.269 50.269-50.269-22.55-50.269-50.269zm-10.686-224.088h6.269c5.226 0 9.478 4.251 9.478 9.477v34.702c0 4.142 3.357 7.5 7.5 7.5s7.5-3.358 7.5-7.5v-40.971c0-5.226 4.251-9.477 9.477-9.477h6.269c5.226 0 9.477 4.251 9.477 9.477v40.971c0 4.142 3.357 7.5 7.5 7.5s7.5-3.358 7.5-7.5v-34.702c0-5.226 4.252-9.477 9.478-9.477h6.269c5.226 0 9.477 4.251 9.477 9.477v34.702c0 4.142 3.357 7.5 7.5 7.5s7.5-3.358 7.5-7.5v-18.748c0-3.327 2.706-6.033 6.033-6.033h6.887c3.327 0 6.034 2.707 6.034 6.033v80.566c0 11.474-3.6 22.403-10.409 31.605-5.489 7.417-8.513 16.615-8.513 25.9v18.245h-.635c-11.981-14.023-29.787-22.928-49.634-22.928s-37.653 8.904-49.634 22.928h-3.69c-4.567-10.729-13.858-18.924-25.33-21.998l-5.205-1.395c-12.555-3.364-21.922-13.508-24.579-25.842h16.049c12.107 0 21.958-9.85 21.958-21.958v-101.077c-.002-5.226 4.249-9.477 9.474-9.477zm-102.1 16.977h77.624v93.58c0 3.836-3.121 6.958-6.958 6.958h-70.666zm-26.112-13.366c0-3.063 2.492-5.556 5.556-5.556s5.556 2.492 5.556 5.556v127.269c0 3.063-2.492 5.556-5.556 5.556s-5.556-2.492-5.556-5.556zm-56.394 291.336-5.204-1.395c-10.168-2.724-17.269-11.978-17.269-22.503v-80.129c19.152-2.831 35.208-16.812 40.331-35.934l1.395-5.205c2.699-10.071 11.805-17.133 22.206-17.266.837 10.572 9.708 18.919 20.491 18.919 10.784 0 19.655-8.348 20.491-18.921h39.445c2.831 19.152 16.813 35.208 35.933 40.331l5.205 1.395c4.689 1.256 8.778 3.918 11.8 7.508h-3.496c-8.796 0-15.952 7.156-15.952 15.952v7.823c0 4.142 3.357 7.5 7.5 7.5s7.5-3.358 7.5-7.5v-7.823c0-.525.427-.952.952-.952h14.97c-7.885 17.022-8.137 37.115 0 54.681h-14.97c-.525 0-.952-.427-.952-.952v-9.954c0-4.142-3.357-7.5-7.5-7.5s-7.5 3.358-7.5 7.5v9.954c0 8.796 7.156 15.952 15.952 15.952h8.964v10.444c-19.151 2.831-35.207 16.813-40.33 35.934l-1.395 5.205c-2.725 10.167-11.979 17.268-22.504 17.268h-4.76c-1.969-2.506-5.026-4.118-8.453-4.118h-34.565c-3.427 0-6.484 1.612-8.453 4.118h-23.898c-2.831-19.152-16.813-35.209-35.934-40.332zm57.539 55.331v100.537h-59.849v-93.58c0-3.836 3.121-6.958 6.957-6.958h52.892zm15-4.118h26.058v108.773h-26.058zm230.79 9.178h-34.702c-4.143 0-7.5 3.358-7.5 7.5s3.357 7.5 7.5 7.5h40.972c5.226 0 9.477 4.251 9.477 9.477v6.269c0 5.226-4.252 9.477-9.478 9.477h-40.971c-4.143 0-7.5 3.358-7.5 7.5s3.357 7.5 7.5 7.5h34.702c5.226 0 9.477 4.251 9.477 9.477v6.269c0 5.226-4.251 9.477-9.477 9.477h-34.702c-4.143 0-7.5 3.358-7.5 7.5s3.357 7.5 7.5 7.5h18.748c3.327 0 6.033 2.706 6.033 6.033v6.887c0 3.327-2.706 6.034-6.033 6.034h-80.566c-11.475 0-22.404-3.6-31.605-10.41-7.417-5.489-16.615-8.512-25.899-8.512h-35.707v-100.538h2.467c17.303 0 32.515-11.672 36.992-28.386l1.395-5.205c3.347-12.49 13.4-21.824 25.648-24.537l.193 16.007c0 12.107 9.851 21.958 21.958 21.958h101.079c5.226 0 9.477 4.251 9.477 9.477v6.269c-.001 5.226-4.252 9.477-9.478 9.477zm-7.5-40.222h-93.579c-3.812 0-6.916-3.08-6.958-6.971v-41.716h.635c11.981 14.024 29.787 22.928 49.634 22.928s37.653-8.905 49.634-22.928h.635v48.687zm24.916-64.639c0 .525-.427.952-.952.952h-14.97c7.868-16.987 8.153-37.08 0-54.681h14.97c.525 0 .952.427.952.952z"/></g></svg>