<svg id="Layer_1" enable-background="new 0 0 511.943 511.943" height="512" viewBox="0 0 511.943 511.943" width="512" xmlns="http://www.w3.org/2000/svg"><g><path d="m310.157 222.665c5.6 0 10.864-2.181 14.822-6.14l97.517-97.517c18.658-18.656-10.852-48.439-29.644-29.644l-97.517 97.517c-12.759 12.76-2.959 35.784 14.822 35.784zm-4.215-25.177 97.517-97.517c4.922-4.922 13.824 3.036 8.43 8.431l-97.517 97.517c-5.209 5.209-13.584-3.276-8.43-8.431z"/><path d="m209.036 205.447c-19.341 18.885 10.135 50.252 30.066 30.791 18.725-18.284 26.941-39.377 25.118-64.486-1.435-19.753-8.937-38.43-16.192-56.493-15.982-39.792-20.197-57.916 2.883-77.19 20.941-17.49-6.663-50.5-27.586-33.031-49.379 41.239-29.642 90.38-15.23 126.262 15.388 38.316 19.782 55.751.941 74.147zm23.903-188.895c6.022-5.029 14.619 4.774 8.356 10.005-33.741 28.179-20.843 60.293-7.187 94.294 6.827 16.995 13.886 34.569 15.15 51.989 1.484 20.431-5.266 37.659-20.636 52.667-5.747 5.609-14.988-3.584-9.107-9.327 12.525-12.23 17.856-25.533 16.776-41.865-.957-14.473-6.774-29.917-14.28-48.604-14.101-35.113-30.084-74.908 10.928-109.159z"/><path d="m503.832 258.572c-10.808-9.025-23.264-5.607-29.982 2.437-9.295 11.129-18.667 16.093-30.387 16.093-12.89 0-28.168-5.726-46.803-13.21-20.116-8.219-41.047-16.436-63.117-16.436-22.271 0-41.198 8.295-57.861 25.361-19.067 19.527 11.728 49.591 30.792 30.065 8.368-8.569 16.728-12.391 27.108-12.391 12.821 0 28.229 5.779 47.044 13.336 19.08 7.663 40.705 16.349 63.216 16.348 4.142 0 7.5-3.358 7.5-7.5s-3.358-7.5-7.5-7.5c-19.612 0-39.807-8.111-57.63-15.269-20.335-8.168-37.123-14.416-52.63-14.416-14.351 0-26.729 5.532-37.84 16.912-5.545 5.68-15.015-3.282-9.327-9.107 13.693-14.023 29.109-20.84 47.129-20.84 19.972 0 39.349 7.896 57.526 15.354 20.159 8.098 36.818 14.292 52.394 14.292 16.349 0 29.663-6.825 41.9-21.478 5.121-6.13 15.23 2.1 10.006 8.356-8.097 9.695-16.988 16.76-26.425 21-3.778 1.697-5.465 6.136-3.768 9.915 1.697 3.777 6.135 5.464 9.915 3.768 11.528-5.178 22.225-13.612 31.792-25.067 8.777-10.514 4.979-23.316-3.052-30.023z"/><path d="m304.711 390.521c6.308 0 6.534-9.542 3.42-12.655l-174.06-174.059c-4.898-3.532-8.964-2.748-12.198 2.351l-15.118 35.311c-1.63 3.808.135 8.216 3.942 9.847 3.809 1.629 8.216-.135 9.847-3.942l10.756-25.123 146.6 146.6-186.105-54.331 17.671-41.274c1.63-3.808-.135-8.216-3.942-9.847-3.809-1.631-8.217.135-9.847 3.942l-94.294 220.238c-6 14.014 8.771 29.058 22.976 22.976l280.352-120.034c-.001.001-.001.001 0 0zm-218.863-62.11 193.729 56.555-121.826 52.16-91.837-26.81-13.452-3.927zm-67.394 168.354c-2.575.386-3.669-.708-3.282-3.282l31.343-73.204 89.535 26.138z"/><path d="m331.43 78.506c17.633 0 31.979-14.346 31.979-31.979s-14.346-31.979-31.979-31.979-31.979 14.346-31.979 31.979 14.346 31.979 31.979 31.979zm0-48.957c9.362 0 16.979 7.617 16.979 16.979s-7.617 16.979-16.979 16.979-16.979-7.617-16.979-16.979 7.617-16.979 16.979-16.979z"/><path d="m434.284 181.361c0 17.633 14.346 31.979 31.979 31.979s31.979-14.346 31.979-31.979-14.346-31.979-31.979-31.979-31.979 14.346-31.979 31.979zm48.957 0c0 9.362-7.617 16.979-16.979 16.979s-16.979-7.617-16.979-16.979 7.617-16.979 16.979-16.979 16.979 7.617 16.979 16.979z"/><path d="m64.925 79.926 18.185 9.958 2.106 20.625c.613 6.002 8.053 8.986 12.604 4.697l15.09-14.218 20.267 4.371c5.456 1.177 11.156-4.623 8.362-10.536l-8.859-18.745 10.42-17.924c3.286-5.651-1.899-11.919-7.436-11.208l-20.565 2.633-13.828-15.449c-4.07-4.547-11.825-2.387-12.958 3.609l-3.851 20.372-18.965 8.376c-5.582 2.466-5.925 10.508-.572 13.439zm29.205-9.687c2.258-.998 3.881-3.042 4.339-5.468l1.761-9.314 6.322 7.063c1.646 1.838 4.092 2.748 6.541 2.437l9.403-1.204-4.764 8.195c-1.241 2.134-1.352 4.742-.297 6.974l4.05 8.57-9.266-1.998c-2.412-.521-4.928.18-6.724 1.873l-6.899 6.5-.963-9.43c-.251-2.456-1.694-4.631-3.859-5.816l-8.314-4.553z"/><path d="m43.731 218.423c17.633 0 31.979-14.346 31.979-31.979s-14.346-31.979-31.979-31.979-31.979 14.346-31.979 31.979 14.346 31.979 31.979 31.979zm0-48.957c9.362 0 16.979 7.617 16.979 16.979s-7.617 16.979-16.979 16.979-16.979-7.617-16.979-16.979 7.617-16.979 16.979-16.979z"/><path d="m463.212 397.692 2.633-20.565c.708-5.536-5.553-10.724-11.208-7.437l-17.925 10.419-18.745-8.858c-5.913-2.792-11.713 2.904-10.536 8.362l4.371 20.267-14.218 15.09c-4.486 4.76-.856 12.038 4.697 12.604l20.625 2.106 9.958 18.185c2.899 5.296 10.983 4.989 13.438-.572l8.377-18.965 20.372-3.851c5.996-1.133 8.156-8.889 3.609-12.958zm-15.193 16.629c-2.425.458-4.47 2.081-5.467 4.339l-3.83 8.671-4.553-8.314c-1.186-2.165-3.36-3.608-5.816-3.859l-9.43-.963 6.5-6.899c1.693-1.796 2.394-4.311 1.873-6.724l-1.998-9.266 8.57 4.05c2.233 1.055 4.84.944 6.974-.297l8.195-4.764-1.204 9.402c-.313 2.449.598 4.895 2.438 6.541l7.063 6.322z"/><path d="m326.345 437.08c-17.633 0-31.979 14.346-31.979 31.979s14.346 31.979 31.979 31.979 31.979-14.346 31.979-31.979-14.346-31.979-31.979-31.979zm0 48.957c-9.362 0-16.979-7.617-16.979-16.979s7.617-16.979 16.979-16.979 16.979 7.617 16.979 16.979-7.617 16.979-16.979 16.979z"/><path d="m432.358 53.871 19.879 5.89 6.418 19.714c1.814 5.572 9.628 7.287 13.312 1.927l11.744-17.086 20.733-.012c5.582-.003 9.926-6.877 5.946-12.065l-12.621-16.449 6.396-19.722c1.883-5.804-3.886-11.421-9.638-9.383l-19.544 6.92-16.78-12.177c-5.293-3.84-12.048.686-11.902 6.266l.542 20.726-16.766 12.196c-4.935 3.588-3.57 11.523 2.281 13.255zm26.497-15.641c1.997-1.452 3.15-3.793 3.086-6.261l-.248-9.476 7.672 5.567c1.998 1.45 4.582 1.824 6.908 1l8.935-3.164-2.924 9.017c-.761 2.348-.319 4.92 1.184 6.879l5.771 7.521-9.479.005c-2.468.001-4.778 1.217-6.176 3.251l-5.37 7.812-2.934-9.014c-.764-2.347-2.635-4.168-5.001-4.869l-9.089-2.693z"/></g></svg>