<svg id="Capa_1" enable-background="new 0 0 512 512" height="512" viewBox="0 0 512 512" width="512" xmlns="http://www.w3.org/2000/svg"><g><path d="m300.841 285.612c-2.477-.391-5.002-.865-7.677-1.367-12.538-2.354-25.501-4.787-34.479 1.543-4.414 3.111-7.148 7.821-8.127 13.997-1.631 10.294 2.055 23.372 9.862 34.983 8.12 12.079 18.769 19.954 29.214 21.605 1.764.279 3.573.588 5.401.901 7.013 1.199 14.146 2.419 20.738 2.419 6.379 0 12.251-1.144 17.008-4.555 4.506-3.231 7.285-7.994 8.262-14.157 0 0 0 0 0-.001 1.654-10.44-2.202-23.05-10.579-34.595-8.382-11.55-19.179-19.121-29.623-20.773zm25.357 53.019c-.489 3.084-1.715 3.963-2.176 4.294-4.572 3.276-16.705 1.203-26.453-.466-1.892-.323-3.762-.643-5.588-.931-6.146-.972-13.46-6.774-19.087-15.144-5.571-8.287-8.512-17.804-7.491-24.246.481-3.036 1.543-3.784 1.942-4.065 1.338-.943 3.536-1.303 6.197-1.303 4.872 0 11.299 1.206 16.848 2.247 2.662.499 5.413 1.016 8.103 1.441 6.338 1.002 13.926 6.656 19.804 14.755 5.879 8.1 8.906 17.073 7.901 23.418z"/><path d="m511.233 59.556c-2.446-17.882-9.775-32.847-21.194-43.275-10.153-9.272-23.172-14.816-37.649-16.033-13.639-1.15-27.555 1.721-39.175 8.077-7.345 4.017-13.474 9.295-18.046 15.436-4.573-6.143-10.7-11.42-18.046-15.437-11.621-6.354-25.535-9.218-39.176-8.076-14.477 1.217-27.496 6.761-37.649 16.033-2.383 2.176-4.576 4.561-6.596 7.117-15.456-2.984-31.248-4.51-47.024-4.51-71.842 0-139.971 31.221-186.917 85.657-2.711 3.143-2.36 7.887.784 10.598 1.42 1.224 3.166 1.824 4.905 1.824 2.11 0 4.208-.884 5.694-2.608 15.268-17.703 32.925-32.787 52.282-44.949 15.453 4.946 22.589 7.979 25.869 9.681 1.229.638 1.433 1.226 1.558 1.875 1.233 6.389-8.012 20.769-14.644 28.472-2.13 2.467-2.426 6.025-.734 8.812 1.693 2.786 4.991 4.162 8.161 3.41.616-.146 61.985-14.47 94.469-.67 8.202 3.483 11.922 6.472 13.267 8.025-2.809 2.092-14.992 8.131-63.053 9.694-47.353 1.54-72.965 19.827-77.341 37.267-2.208 8.799 1.166 17.008 8.805 21.424 17.589 10.165 59.07-.181 90.769-10.653 11.959-3.948 16.255-1.043 29.005 7.583 5.438 3.678 12.205 8.256 21.093 13.146 4.99 2.745 13.285 8.404 12.772 15.47-.518 7.145-9.916 18.09-34.741 27.385-20.576 7.702-34.607 19.137-41.702 33.987-5.36 11.218-6.717 23.899-4.15 38.766 2.712 15.704 10.131 23.448 16.677 30.281 3.437 3.586 6.682 6.973 9.416 11.541 7.474 12.486 10.214 35.94-4.082 47.5-4.908 3.97-12.982 3.91-23.998-.176-10.536-3.907-20.87-10.481-27.044-14.41-1.32-.84-2.457-1.563-3.377-2.122-3.666-2.322-10.299-18.978-13.863-27.928-4.106-10.308-7.651-19.211-11.398-24.111-6.519-8.525-28.974-20.139-41.587-26.22 4.28-7.348 11.015-19.446 16.959-32.461 14.284-31.276 16.159-50.159 5.9-59.428-7.273-6.571-14.883-9.307-22.617-8.153-15.22 2.286-28.125 19.159-42.819 43.792-6.23 10.444-21.882 11.794-35.876 10.566-.056-2.099-.09-4.201-.09-6.309 0-45.706 13.305-89.91 38.476-127.829 2.295-3.458 1.352-8.121-2.106-10.417-3.457-2.294-8.121-1.353-10.418 2.106-26.81 40.39-40.982 87.466-40.982 136.139 0 65.858 25.66 127.774 72.252 174.342 46.592 46.567 108.538 72.213 174.427 72.213 80.32 0 155.853-39.282 202.053-105.079 2.386-3.396 1.565-8.083-1.832-10.469-3.396-2.384-8.085-1.563-10.469 1.833-24.567 34.988-57.97 61.983-96.014 78.828 1.878-5.634 4.366-12.364 7.487-19.321 9.398-20.949 20.268-34.457 31.434-39.063 5.166-2.131 11.373-7.022 11.603-18.223.131-6.356-1.569-13.637-3.536-22.067-3.299-14.132-7.405-31.72-3.235-49.469 3.88-16.511 14.811-19.579 26.384-22.828 10.756-3.02 27.012-7.583 21.529-29.256-5.024-19.859 12.853-44.432 41.481-58.514 3.16 15.327 4.766 31.041 4.766 47.073 0 37.627-9.234 74.978-26.702 108.018-1.94 3.668-.537 8.215 3.132 10.156 1.12.592 2.321.873 3.505.873 2.697 0 5.303-1.455 6.651-4.005 18.608-35.195 28.444-74.976 28.444-115.042 0-37.625-8.714-75.051-25.213-108.631 32.651-31.397 47.523-64.824 43.086-97.258zm-93.722 221.016c1.838 7.267.797 7.783-11.022 11.1-12.362 3.471-31.045 8.715-36.952 33.861-4.975 21.175-.427 40.663 3.229 56.322 1.738 7.444 3.238 13.874 3.146 18.342-.076 3.718-1.11 4.145-2.307 4.638-14.997 6.186-28.259 21.933-39.416 46.806-6.004 13.386-9.841 26.035-11.623 32.511-24.116 8.374-49.73 12.819-75.888 12.819-61.877 0-120.048-24.083-163.802-67.814-38.651-38.631-61.948-88.513-66.858-142.255 23.657 1.666 39.747-4.371 47.886-18.016 8.945-14.994 22.009-35.106 32.142-36.627 1.984-.297 5.212-.162 10.307 4.44.28.253 6.668 6.599-9.442 41.919-9.01 19.751-20.319 37.932-20.432 38.113-1.146 1.837-1.444 4.078-.819 6.151.625 2.072 2.115 3.775 4.086 4.67 15.385 6.991 39.044 19.442 43.474 25.235 2.489 3.255 6.147 12.439 9.375 20.543 7.528 18.903 12.631 30.705 20.003 35.199.854.52 1.908 1.192 3.132 1.971 10.468 6.661 31.216 19.864 49.74 19.862 6.775-.001 13.257-1.768 18.823-6.269 9.987-8.075 15.457-19.93 15.822-34.284.286-11.274-2.814-23.469-8.293-32.621-3.605-6.022-7.778-10.378-11.459-14.22-6.028-6.292-10.789-11.26-12.719-22.441-4.706-27.252 6.832-45.086 36.311-56.121 27.532-10.307 43.322-24.645 44.462-40.372 1.118-15.428-12.376-25.245-20.518-29.725-8.283-4.556-14.463-8.737-19.915-12.426-13.451-9.1-23.171-15.674-42.143-9.405-38.324 12.659-69.147 17.335-78.532 11.911-1.27-.734-2.471-1.873-1.748-4.754 2.332-9.296 21.567-24.548 63.25-25.903 24.282-.79 42.941-2.798 55.459-5.967 8.752-2.217 20.599-6.296 22.429-16.093 1.707-9.139-5.936-17.386-22.714-24.514-25.142-10.679-62.742-7.212-85.15-3.681 4.548-7.882 8.324-17.325 6.781-25.344-1.048-5.455-4.298-9.736-9.395-12.381-3.517-1.825-8.574-3.912-15.265-6.302 32.346-16.589 68.501-25.532 105.726-25.532 12.966 0 25.943 1.104 38.711 3.252-3.048 6.763-5.174 14.269-6.284 22.386-3.764 27.52 5.975 55.21 28.949 82.3 2.686 3.166 7.426 3.556 10.593.872 3.166-2.685 3.556-7.427.872-10.592-20.097-23.697-28.683-47.43-25.522-70.543 3.689-26.965 20.59-44.299 45.21-46.369 22.418-1.874 43.381 9.716 48.79 26.981.982 3.134 3.887 5.267 7.172 5.267s6.189-2.133 7.172-5.268c5.41-17.264 26.387-28.861 48.789-26.98 24.621 2.069 41.521 19.403 45.211 46.369 9.134 66.77-82.5 119.052-101.18 128.965-8.61-4.547-32.676-18.037-55.241-37.853-3.12-2.736-7.867-2.43-10.607.688-2.738 3.118-2.431 7.867.688 10.606 29.471 25.88 60.572 41.132 61.881 41.769 1.037.504 2.162.756 3.286.756s2.249-.252 3.286-.756c1.229-.597 29.755-14.591 58.051-38.479 5.525 11.746 10.028 23.808 13.46 36.155-37.17 17.013-59.498 49.303-52.458 77.128z"/></g></svg>