<svg height="512" viewBox="0 0 512 512" width="512" xmlns="http://www.w3.org/2000/svg"><g fill="rgb(0,0,0)"><path d="m486.5 179.614a7.5 7.5 0 0 0 -7.5 7.5v289.386a2.5 2.5 0 0 1 -2.5 2.5h-320a2.5 2.5 0 0 1 -2.5-2.5v-42.5a7.5 7.5 0 0 0 -15 0v42.5a17.521 17.521 0 0 0 17.5 17.5h320a17.521 17.521 0 0 0 17.5-17.5v-289.386a7.5 7.5 0 0 0 -7.5-7.5z"/><path d="m491.8 90.2-70-70a7.5 7.5 0 0 0 -5.3-2.2h-260a17.52 17.52 0 0 0 -17.5 17.5v58h-103.5a17.52 17.52 0 0 0 -17.5 17.5v290a17.52 17.52 0 0 0 17.5 17.5h210a17.52 17.52 0 0 0 17.5-17.5v-290a17.52 17.52 0 0 0 -17.5-17.5h-91.5v-58a2.5 2.5 0 0 1 2.5-2.5h252.5v52.5a17.519 17.519 0 0 0 17.5 17.5h52.5v57.5a7.5 7.5 0 0 0 15 0v-65a7.5 7.5 0 0 0 -2.2-5.3zm-243.8 20.8v290a2.5 2.5 0 0 1 -2.5 2.5h-210a2.5 2.5 0 0 1 -2.5-2.5v-290a2.5 2.5 0 0 1 2.5-2.5h210a2.5 2.5 0 0 1 2.5 2.5zm220.39-23h-41.89a2.5 2.5 0 0 1 -2.5-2.5v-41.89l-.009-.012 44.409 44.41z"/><path d="m302 297h147a12.514 12.514 0 0 0 12.5-12.5v-147a12.514 12.514 0 0 0 -12.5-12.5h-147a12.514 12.514 0 0 0 -12.5 12.5v147a12.514 12.514 0 0 0 12.5 12.5zm57.333-157h87.167v37h-87.167zm0 52h87.167v38h-87.167zm0 53h87.167v37h-87.167zm-54.833-105h39.833v37h-39.833zm0 52h39.833v38h-39.833zm0 53h39.833v37h-39.833z"/><path d="m297 338.5h157a7.5 7.5 0 0 0 0-15h-157a7.5 7.5 0 0 0 0 15z"/><path d="m320.9 411a7.5 7.5 0 0 0 7.5 7.5h125.6a7.5 7.5 0 0 0 0-15h-125.6a7.5 7.5 0 0 0 -7.5 7.5z"/><path d="m431.868 378.5a7.5 7.5 0 0 0 0-15h-40.96a7.5 7.5 0 0 0 0 15z"/><path d="m297 378.5h71.7a7.5 7.5 0 0 0 0-15h-71.7a7.5 7.5 0 0 0 0 15z"/><circle cx="453.477" cy="371.001" r="7.5"/><circle cx="304.84" cy="411" r="7.5"/><path d="m65.5 198.5h150a12.514 12.514 0 0 0 12.5-12.5v-45a12.514 12.514 0 0 0 -12.5-12.5h-97.5a7.5 7.5 0 0 0 0 15h95v40h-145v-40h27.5a7.5 7.5 0 0 0 0-15h-30a12.514 12.514 0 0 0 -12.5 12.5v45a12.514 12.514 0 0 0 12.5 12.5z"/><path d="m118 253.544h-10v-9.993a7.5 7.5 0 0 0 -15 0v9.993h-10a7.5 7.5 0 0 0 0 15h10v10.007a7.5 7.5 0 0 0 15 0v-10.007h10a7.5 7.5 0 1 0 0-15z"/><path d="m60.5 388.544h160a7.5 7.5 0 0 0 7.5-7.5v-160a7.5 7.5 0 0 0 -7.5-7.5h-160a7.5 7.5 0 0 0 -7.5 7.5v160a7.5 7.5 0 0 0 7.5 7.5zm87.5-160h65v65h-65zm0 80h65v65h-65zm-80-80h65v65h-65zm0 80h65v65h-65z"/><path d="m198 253.544h-35a7.5 7.5 0 0 0 0 15h35a7.5 7.5 0 1 0 0-15z"/><path d="m198 321.9h-35a7.5 7.5 0 0 0 0 15h35a7.5 7.5 0 0 0 0-15z"/><path d="m198 345.192h-35a7.5 7.5 0 0 0 0 15h35a7.5 7.5 0 0 0 0-15z"/><path d="m111.109 341.041 7.066-7.066a7.5 7.5 0 0 0 -10.607-10.606l-7.065 7.066-7.071-7.071a7.5 7.5 0 0 0 -10.607 10.606l7.071 7.071-7.076 7.077a7.5 7.5 0 1 0 10.606 10.606l7.077-7.076 7.071 7.071a7.5 7.5 0 1 0 10.606-10.606z"/></g></svg>