<svg id="Accounting" height="512" viewBox="0 0 64 64" width="512" xmlns="http://www.w3.org/2000/svg"><path d="m48 22v2h-1a3 3 0 0 0 0 6h1v2h-1a1 1 0 0 1 -1-1h-2a3 3 0 0 0 3 3h1v2h2v-2h1a3 3 0 0 0 0-6h-1v-2h1a1 1 0 0 1 1 1h2a3 3 0 0 0 -3-3h-1v-2zm3 8a1 1 0 0 1 0 2h-1v-2zm-3-2h-1a1 1 0 0 1 0-2h1z"/><path d="m19 7h15v2h-15z"/><path d="m19 12h15v2h-15z"/><path d="m19 17h4v2h-4z"/><path d="m25 17h12v2h-12z"/><path d="m19 22h18v2h-18z"/><path d="m19 27h18v2h-18z"/><path d="m19 32h2v2h-2z"/><path d="m23 32h2v2h-2z"/><path d="m27 32h10v2h-10z"/><path d="m61 38h-5.7a10.985 10.985 0 0 0 -5.3-19.95v-5.05a1 1 0 0 0 -.33-.74l-11-10a.971.971 0 0 0 -.67-.26h-35a1 1 0 0 0 -1 1v58a1 1 0 0 0 1 1h58a1 1 0 0 0 1-1v-22a1 1 0 0 0 -1-1zm-3-9a9 9 0 1 1 -9-9 9.014 9.014 0 0 1 9 9zm-19-23.74 7.41 6.74h-7.41zm-31 7.74v-1a3 3 0 0 1 6 0v1zm6 2v34h-2v-34zm-4 0v34h-2v-34zm3.57 36-2.57 7.07-2.57-7.07zm5.43-13a1 1 0 0 0 -1 1v21h-5.57l3.51-9.66a.974.974 0 0 0 .06-.34v-38a5 5 0 0 0 -10 0v38a.974.974 0 0 0 .06.34l3.51 9.66h-5.57v-56h33v9a1 1 0 0 0 1 1h10v4.05a10.985 10.985 0 0 0 -5.3 19.95zm41 22h-40v-20h40z"/><path d="m27 42a1 1 0 0 0 -1 1 3 3 0 0 1 -3 3 1 1 0 0 0 -1 1v6a1 1 0 0 0 1 1 3 3 0 0 1 3 3 1 1 0 0 0 1 1h26a1 1 0 0 0 1-1 3 3 0 0 1 3-3 1 1 0 0 0 1-1v-6a1 1 0 0 0 -1-1 3 3 0 0 1 -3-3 1 1 0 0 0 -1-1zm19 8a6 6 0 1 1 -6-6 6.006 6.006 0 0 1 6 6zm-18.1 6a5.013 5.013 0 0 0 -3.9-3.9v-4.2a5.013 5.013 0 0 0 3.9-3.9h6.827a7.966 7.966 0 0 0 0 12zm24.2-12a5.013 5.013 0 0 0 3.9 3.9v4.2a5.013 5.013 0 0 0 -3.9 3.9h-6.826a7.966 7.966 0 0 0 0-12z"/></svg>