<svg id="Accounting" height="512" viewBox="0 0 64 64" width="512" xmlns="http://www.w3.org/2000/svg"><path d="m61 21h-2v-3a1 1 0 0 0 -1-1h-4v-8a1.033 1.033 0 0 0 -.29-.71l-6-6a1.033 1.033 0 0 0 -.71-.29h-36a1 1 0 0 0 -1 1v12h-7a1 1 0 0 0 -1 1v43a3.009 3.009 0 0 0 3 3h56a1 1 0 0 0 1-1v-39a1 1 0 0 0 -1-1zm-7-2h3v2h-3zm-7-14.59 3.59 3.59h-3.59zm-35-.41h33v5a1 1 0 0 0 1 1h6v11h-22.2l-3.99-5.58a1 1 0 0 0 -.81-.42h-13zm18 55a1 1 0 0 1 -1 1h-24a1 1 0 0 1 -1-1v-31a1 1 0 0 1 1-1h24a1 1 0 0 1 1 1zm5 1h-3.18a3 3 0 0 0 .18-1v-1h3zm0-4h-3v-2h3zm8 4h-6v-6h6zm17 0h-15v-2h15zm0-4h-15v-2h15zm0-4h-28v-2h21a1 1 0 0 0 1-1 3.009 3.009 0 0 1 3-3 1 1 0 0 0 1-1v-6a1 1 0 0 0 -1-1 3.009 3.009 0 0 1 -3-3 1 1 0 0 0 -1-1h-21v-2h28zm-14-10a6 6 0 1 1 -6-6 6 6 0 0 1 6 6zm-.73-6h6.83a5.01 5.01 0 0 0 3.9 3.9v4.2a5.01 5.01 0 0 0 -3.9 3.9h-6.83a7.958 7.958 0 0 0 0-12zm-13.27 6a7.974 7.974 0 0 0 2.73 6h-2.73v-12h2.73a7.974 7.974 0 0 0 -2.73 6zm28-12h-28v-2a3.009 3.009 0 0 0 -3-3h-24a3 3 0 0 0 -1 .18v-8.18h20.49l3.99 5.58a1 1 0 0 0 .81.42h30.71z"/><path d="m27 29h-20a1 1 0 0 0 -1 1v5a1 1 0 0 0 1 1h20a1 1 0 0 0 1-1v-5a1 1 0 0 0 -1-1zm-1 5h-18v-3h18z"/><path d="m11 38h-4a1 1 0 0 0 -1 1v4a1 1 0 0 0 1 1h4a1 1 0 0 0 1-1v-4a1 1 0 0 0 -1-1zm-1 4h-2v-2h2z"/><path d="m11 45h-4a1 1 0 0 0 -1 1v4a1 1 0 0 0 1 1h4a1 1 0 0 0 1-1v-4a1 1 0 0 0 -1-1zm-1 4h-2v-2h2z"/><path d="m11 52h-4a1 1 0 0 0 -1 1v4a1 1 0 0 0 1 1h4a1 1 0 0 0 1-1v-4a1 1 0 0 0 -1-1zm-1 4h-2v-2h2z"/><path d="m19 38h-4a1 1 0 0 0 -1 1v4a1 1 0 0 0 1 1h4a1 1 0 0 0 1-1v-4a1 1 0 0 0 -1-1zm-1 4h-2v-2h2z"/><path d="m19 45h-4a1 1 0 0 0 -1 1v4a1 1 0 0 0 1 1h4a1 1 0 0 0 1-1v-4a1 1 0 0 0 -1-1zm-1 4h-2v-2h2z"/><path d="m19 52h-4a1 1 0 0 0 -1 1v4a1 1 0 0 0 1 1h4a1 1 0 0 0 1-1v-4a1 1 0 0 0 -1-1zm-1 4h-2v-2h2z"/><path d="m27 38h-4a1 1 0 0 0 -1 1v4a1 1 0 0 0 1 1h4a1 1 0 0 0 1-1v-4a1 1 0 0 0 -1-1zm-1 4h-2v-2h2z"/><path d="m27 45h-4a1 1 0 0 0 -1 1v11a1 1 0 0 0 1 1h4a1 1 0 0 0 1-1v-11a1 1 0 0 0 -1-1zm-1 11h-2v-9h2z"/><path d="m15 7h2v2h-2z"/><path d="m19 7h2v2h-2z"/><path d="m23 7h18.999v2h-18.999z"/><path d="m15 11h34v2h-34z"/><path d="m30 15h19v2h-19z"/></svg>