<?xml version="1.0" encoding="UTF-8"?>
<svg xmlns="http://www.w3.org/2000/svg" id="Accounting" viewBox="0 0 64 64" width="512" height="512"><path d="M61,38H51.3a10.958,10.958,0,0,0,4.04-5.29A9.993,9.993,0,0,0,53,13a9.332,9.332,0,0,0-1.04.06,11.994,11.994,0,0,0-23.6-1.95,8.97,8.97,0,0,0-9.84,5.9A8.021,8.021,0,0,0,11,25H5a3.009,3.009,0,0,0-3,3V59a3.009,3.009,0,0,0,3,3H61a1,1,0,0,0,1-1V39A1,1,0,0,0,61,38ZM45,38a9,9,0,1,1,9-9A9.014,9.014,0,0,1,45,38Zm-6.3,0H32V33h2.76A11.1,11.1,0,0,0,38.7,38ZM30,59a1,1,0,0,1-1,1H5a1,1,0,0,1-1-1V28a1,1,0,0,1,1-1H29a1,1,0,0,1,1,1ZM29,25H13a6.02,6.02,0,0,1,6.07-6,1.148,1.148,0,0,0,.19.01,1,1,0,0,0,.97-.75,6.98,6.98,0,0,1,8.64-5,1,1,0,0,0,1.26-.81A10,10,0,0,1,50,14.06a1,1,0,0,0,1.2,1.15A8.519,8.519,0,0,1,53,15a8,8,0,0,1,2.89,15.46A10.034,10.034,0,0,0,56,29a11,11,0,1,0-21.81,2H32V28A3.009,3.009,0,0,0,29,25ZM46,50a6,6,0,1,1-6-6A6,6,0,0,1,46,50Zm-.73-6H52.1A5.01,5.01,0,0,0,56,47.9v4.2A5.01,5.01,0,0,0,52.1,56H45.27a7.958,7.958,0,0,0,0-12ZM32,50a7.974,7.974,0,0,0,2.73,6H32V44h2.73A7.974,7.974,0,0,0,32,50ZM60,60H31.82A3,3,0,0,0,32,59V58H53a1,1,0,0,0,1-1,3.009,3.009,0,0,1,3-3,1,1,0,0,0,1-1V47a1,1,0,0,0-1-1,3.009,3.009,0,0,1-3-3,1,1,0,0,0-1-1H32V40H60Z"/><path d="M27,29H7a1,1,0,0,0-1,1v5a1,1,0,0,0,1,1H27a1,1,0,0,0,1-1V30A1,1,0,0,0,27,29Zm-1,5H8V31H26Z"/><path d="M11,38H7a1,1,0,0,0-1,1v4a1,1,0,0,0,1,1h4a1,1,0,0,0,1-1V39A1,1,0,0,0,11,38Zm-1,4H8V40h2Z"/><path d="M11,45H7a1,1,0,0,0-1,1v4a1,1,0,0,0,1,1h4a1,1,0,0,0,1-1V46A1,1,0,0,0,11,45Zm-1,4H8V47h2Z"/><path d="M11,52H7a1,1,0,0,0-1,1v4a1,1,0,0,0,1,1h4a1,1,0,0,0,1-1V53A1,1,0,0,0,11,52Zm-1,4H8V54h2Z"/><path d="M19,38H15a1,1,0,0,0-1,1v4a1,1,0,0,0,1,1h4a1,1,0,0,0,1-1V39A1,1,0,0,0,19,38Zm-1,4H16V40h2Z"/><path d="M19,45H15a1,1,0,0,0-1,1v4a1,1,0,0,0,1,1h4a1,1,0,0,0,1-1V46A1,1,0,0,0,19,45Zm-1,4H16V47h2Z"/><path d="M19,52H15a1,1,0,0,0-1,1v4a1,1,0,0,0,1,1h4a1,1,0,0,0,1-1V53A1,1,0,0,0,19,52Zm-1,4H16V54h2Z"/><path d="M27,38H23a1,1,0,0,0-1,1v4a1,1,0,0,0,1,1h4a1,1,0,0,0,1-1V39A1,1,0,0,0,27,38Zm-1,4H24V40h2Z"/><path d="M27,45H23a1,1,0,0,0-1,1V57a1,1,0,0,0,1,1h4a1,1,0,0,0,1-1V46A1,1,0,0,0,27,45ZM26,56H24V47h2Z"/><path d="M47,28H46V26h1a1,1,0,0,1,1,1h2a3.009,3.009,0,0,0-3-3H46V22H44v2H43a3,3,0,0,0,0,6h1v2H43a1,1,0,0,1-1-1H40a3.009,3.009,0,0,0,3,3h1v2h2V34h1a3,3,0,0,0,0-6Zm-3,0H43a1,1,0,0,1,0-2h1Zm3,4H46V30h1a1,1,0,0,1,0,2Z"/></svg>
